<svg xmlns="http://www.w3.org/2000/svg" xmlns:xlink="http://www.w3.org/1999/xlink" xmlns:lucid="lucid" width="2520" height="1040"><g transform="translate(200 -80)" lucid:page-tab-id="0_0"><path d="M-500 0h3000v1500H-500z" fill="#fff"/><path d="M200 106a6 6 0 0 1 6-6h1788a6 6 0 0 1 6 6v988a6 6 0 0 1-6 6H206a6 6 0 0 1-6-6z" stroke="#232f3e" fill="#fff" fill-opacity="0"/><path d="M200 100h56v56h-56v-56z" stroke="#fff" stroke-opacity="0" fill="#232f3e"/><path d="M240.88 141.22h-25c-4.13.05-7.57-3.1-7.9-7.2v-.64c-.15-3.4 1.97-6.38 5.25-7.36v-.66c.12-4.22 2.44-7.75 6.24-9.57 4.13-1.86 8.73-.96 11.8 2.3 1.1 1.1 1.85 2.2 2.45 3.6 1.2-1 2.72-1.32 4.24-.9 2.24.8 3.68 2.74 3.76 5.1 3.68.65 6.32 3.8 6.28 7.56 0 7.07-7.04 7.73-7.12 7.76zm-26.7-13.88c-2.83.6-4.75 3.14-4.6 6.04v.53c.3 3.33 3.1 5.84 6.4 5.76h24.98c3.04-.3 5.4-2.64 5.68-5.7.28-3.43-2.24-6.5-5.68-6.78-.44-.05-.72-.45-.64-.87.08-1.83-1-3.44-2.72-4.13-1.32-.37-2.64.13-3.44 1.24-.2.25-.44.38-.76.33-.28-.05-.48-.24-.6-.5-.6-1.6-1.4-2.85-2.6-4.04-2.7-2.8-6.6-3.6-10.13-2-3.24 1.6-5.2 4.63-5.32 8.24-.04.4-.04.74 0 1.14.04.4-.2.76-.6.84z" stroke="#fff" stroke-opacity="0" fill="#fff"/><use xlink:href="#a" transform="matrix(1,0,0,1,271,120) translate(0 14.4)"/><use xlink:href="#b" transform="matrix(1,0,0,1,271,120) translate(45.3 14.4)"/><path d="M500 206a6 6 0 0 1 6-6h1148a6 6 0 0 1 6 6v788a6 6 0 0 1-6 6H506a6 6 0 0 1-6-6z" stroke="#248814" fill="#fff" fill-opacity="0"/><path d="M500 200h56v56h-56v-56z" stroke="#fff" stroke-opacity="0" fill="#248814"/><path d="M531.76 228.3h-1.18v-1.1c-.12-1.73-1.48-3.07-3.2-3.2-1.9-.13-3.54 1.3-3.67 3.2v1.07h-1.17c-.44 0-.8.36-.8.8v6.13c0 .44.36.8.8.8h9.23c.44 0 .8-.36.8-.8v-6.1c0-.44-.36-.8-.8-.8zm-6.4-1.06c.1-1.03 1-1.77 2-1.67.9.08 1.58.77 1.67 1.67v1.06h-3.72zm5.65 7.08h-7.67v-4.42h7.63z" stroke="#fff" stroke-opacity="0" fill="#fff"/><path d="M542.27 225.75c-.1-2.45-1.58-4.48-3.87-5.3-1.58-.47-3.16-.14-4.4.9-.68-1.45-1.47-2.6-2.6-3.76-3.24-3.36-7.94-4.3-12.18-2.4-4.04 1.9-6.4 5.63-6.54 10.05v.7c-3.4.98-5.66 4.08-5.5 7.65v.63c.38 4.28 3.92 7.52 8.2 7.47h26s7.42-.63 7.42-8.1c.04-3.9-2.66-7.2-6.53-7.85zm-.96 14.38h-25.9c-3.47.06-6.3-2.52-6.6-5.96v-.52c-.15-3.05 1.93-5.7 4.92-6.3.38-.12.63-.48.6-.9-.06-.4-.06-.73 0-1.14.07-3.78 2.1-6.94 5.52-8.6 1.25-.56 2.4-.8 3.83-.84 2.62.08 4.87 1.04 6.7 2.94 1.25 1.3 2.04 2.6 2.62 4.3.03.15.1.28.24.37.37.27.87.2 1.12-.17.83-1.18 2.25-1.67 3.62-1.3 1.8.72 2.87 2.4 2.83 4.32-.07.4.22.83.64.9 3.57.36 6.2 3.55 5.82 7.12-.3 3.13-2.7 5.52-5.82 5.85z" stroke="#fff" stroke-opacity="0" fill="#fff"/><use xlink:href="#c" transform="matrix(1,0,0,1,571,220) translate(0 14.4)"/><use xlink:href="#d" transform="matrix(1,0,0,1,571,220) translate(55.5 14.4)"/><use xlink:href="#e" transform="matrix(1,0,0,1,571,220) translate(116.4 14.4)"/><path d="M700 306a6 6 0 0 1 6-6h888a6 6 0 0 1 6 6v588a6 6 0 0 1-6 6H706a6 6 0 0 1-6-6z" fill="#fff" fill-opacity="0"/><path d="M703.7 300.47l.45-.18.9-.23.95-.07h2m4 0h4m4 0h4m4 0h4m4 0h4m4 0h4m4 0h4m4 0h4m4 0h4m4 0h4m4 0h4m4 0h4m4 0h4m4 0h4m4 0h4m4 0h4m4 0h4m4 0h4m4 0h4m4 0h4m4 0h4m4 0h4m4 0h4m4 0h4m4 0h4m4 0h4m4 0h4m4 0h4m4 0h4m4 0h4m4 0h4m4 0h4m4 0h4m4 0h4m4 0h4m4 0h4m4 0h4m4 0h4m4 0h4m4 0h4m4 0h4m4 0h4m4 0h4m4 0h4m4 0h4m4 0h4m4 0h4m4 0h4m4 0h4m4 0h4m4 0h4m4 0h4m4 0h4m4 0h4m4 0h4m4 0h4m4 0h4m4 0h4m4 0h4m4 0h4m4 0h4m4 0h4m4 0h4m4 0h4m4 0h4m4 0h4m4 0h4m4 0h4m4 0h4m4 0h4m4 0h4m4 0h4m4 0h4m4 0h4m4 0h4m4 0h4m4 0h4m4 0h4m4 0h4m4 0h4m4 0h4m4 0h4m4 0h4m4 0h4m4 0h4m4 0h4m4 0h4m4 0h4m4 0h4m4 0h4m4 0h4m4 0h4m4 0h4m4 0h4m4 0h4m4 0h4m4 0h4m4 0h4m4 0h4m4 0h4m4 0h4m4 0h4m4 0h4m4 0h4m4 0h4m4 0h4m4 0h4m4 0h4m4 0h4m4 0h4m4 0h4m4 0h2l.94.07.9.22.45.17m3.23 3.24l.18.45.23.9.07.95v2m0 3.96v3.97m0 3.97v3.98m0 3.97v3.97m0 3.98v3.97m0 3.97v3.98m0 3.97v3.96m0 3.97v3.98m0 3.98v3.97m0 3.98v3.97m0 3.97v3.98m0 3.97v3.97m0 3.97v3.97m0 3.97v3.98m0 3.98v3.97m0 3.97v3.98m0 3.97v3.97m0 3.98v3.97m0 3.97V451m0 4v3.96m0 3.97v3.97m0 3.98v3.97m0 3.97v3.98m0 3.97v3.97m0 3.98v3.97m0 3.96v3.97m0 3.98v3.98m0 3.97v3.98m0 3.97v3.97m0 3.98v3.97m0 3.97v3.97m0 3.97v3.97m0 3.98v3.98m0 3.97v3.97m0 3.98v3.97m0 3.97v3.98m0 3.97v3.97m0 3.97v4m0 3.96v3.97m0 3.98v3.98m0 3.97v3.97m0 3.98v3.97m0 3.97v3.98m0 3.97v3.96m0 3.98v3.97m0 3.98v3.97m0 3.98v3.97m0 3.97v3.98m0 3.97v3.97m0 3.97v3.97m0 3.97v3.98m0 3.98v3.97m0 3.97v3.98m0 3.97v3.97m0 3.98v3.97m0 3.97V745m0 4v3.96m0 3.97v3.98m0 3.98v3.97m0 3.97v3.98m0 3.97v3.97m0 3.98v3.97m0 3.96v3.98m0 3.97v3.98m0 3.97v3.98m0 3.97v3.97m0 3.98v3.97m0 3.97v3.97m0 3.97v3.97m0 3.98v3.98m0 3.97v3.97m0 3.98v3.97m0 3.97v3.98m0 3.97v3.97m0 3.97v2l-.07.94-.22.9-.17.45m-3.24 3.23l-.45.18-.9.23-.95.07h-2m-4 0h-4m-4 0h-4m-4 0h-4m-4 0h-4m-4 0h-4m-4 0h-4m-4 0h-4m-4 0h-4m-4 0h-4m-4 0h-4m-4 0h-4m-4 0h-4m-4 0h-4m-4 0h-4m-4 0h-4m-4 0h-4m-4 0h-4m-4 0h-4m-4 0h-4m-4 0h-4m-4 0h-4m-4 0h-4m-4 0h-4m-4 0h-4m-4 0h-4m-4 0h-4m-4 0h-4m-4 0h-4m-4 0h-4m-4 0h-4m-4 0h-4m-4 0h-4m-4 0h-4m-4 0h-4m-4 0h-4m-4 0h-4m-4 0h-4m-4 0h-4m-4 0h-4m-4 0h-4m-4 0h-4m-4 0h-4m-4 0h-4m-4 0h-4m-4 0h-4m-4 0h-4m-4 0h-4m-4 0h-4m-4 0h-4m-4 0h-4m-4 0h-4m-4 0h-4m-4 0h-4m-4 0h-4m-4 0h-4m-4 0h-4m-4 0h-4m-4 0h-4m-4 0h-4m-4 0h-4m-4 0h-4m-4 0h-4m-4 0h-4m-4 0h-4m-4 0h-4m-4 0h-4m-4 0h-4m-4 0h-4m-4 0h-4m-4 0h-4m-4 0h-4m-4 0h-4m-4 0h-4m-4 0h-4m-4 0h-4m-4 0h-4m-4 0h-4m-4 0h-4m-4 0h-4m-4 0h-4m-4 0h-4m-4 0h-4m-4 0h-4m-4 0h-4m-4 0h-4m-4 0h-4m-4 0h-4m-4 0h-4m-4 0h-4m-4 0h-4m-4 0h-4m-4 0h-4m-4 0h-4m-4 0h-4m-4 0h-4m-4 0h-4m-4 0h-4m-4 0h-4m-4 0h-4m-4 0h-4m-4 0h-4m-4 0h-4m-4 0h-4m-4 0h-4m-4 0h-4m-4 0h-4m-4 0h-4m-4 0h-4m-4 0h-4m-4 0h-4m-4 0h-2l-.94-.07-.9-.22-.45-.17m-3.23-3.24l-.18-.45-.23-.9-.07-.95v-2m0-3.96v-3.97m0-3.98v-3.98m0-3.97v-3.97m0-3.98v-3.97m0-3.97v-3.98m0-3.97v-3.96m0-3.98v-3.97m0-3.98v-3.97m0-3.98v-3.97m0-3.97v-3.98m0-3.97v-3.97m0-3.97v-3.97m0-3.97v-3.98m0-3.98v-3.97m0-3.97v-3.98m0-3.97v-3.97m0-3.98v-3.97m0-3.97V749m0-4v-3.96m0-3.97v-3.98m0-3.98v-3.97m0-3.97v-3.98m0-3.97v-3.97m0-3.98v-3.97m0-3.96v-3.98m0-3.97v-3.98m0-3.97v-3.98m0-3.97v-3.97m0-3.98v-3.97m0-3.97v-3.97m0-3.97v-3.97m0-3.98v-3.98m0-3.97v-3.97m0-3.98v-3.97m0-3.97v-3.98m0-3.97v-3.97m0-3.97v-4m0-3.96v-3.97m0-3.98v-3.98m0-3.97v-3.97m0-3.98v-3.97m0-3.97v-3.98m0-3.97v-3.96m0-3.98v-3.97m0-3.98v-3.97m0-3.98v-3.97m0-3.97v-3.98m0-3.97v-3.97m0-3.97v-3.97m0-3.97v-3.98m0-3.98v-3.97m0-3.97v-3.98m0-3.97v-3.97m0-3.98v-3.97m0-3.97V455m0-4v-3.96m0-3.97v-3.97m0-3.98v-3.97m0-3.97v-3.98m0-3.97v-3.97m0-3.98v-3.97m0-3.96v-3.97m0-3.98v-3.98m0-3.97v-3.98m0-3.97v-3.97m0-3.98v-3.97m0-3.97v-3.97m0-3.97v-3.97m0-3.98v-3.98m0-3.97v-3.97m0-3.98v-3.97m0-3.97v-3.98m0-3.97v-3.97m0-3.97v-2l.07-.94.22-.9.17-.45" stroke="#d86613" fill="none"/><path d="M700 300h56v56h-56v-56z" stroke="#fff" stroke-opacity="0" stroke-width="2" fill="#d86613"/><path d="M727.84 348.1c-.14 0-.28-.03-.38-.1l-17-9.8c-.27-.15-.4-.4-.4-.67v-19.85c0-.28.13-.53.4-.7l15.64-9c.3-.25.78-.13 1.02.2.1.16.14.32.14.48v8.6c0 .26-.14.5-.38.66l-7.83 4.47v10.42l8.82 5.07 7.7-4.48c.23-.16.5-.16.75 0l7.38 4.27c.28.1.4.35.4.67 0 .28-.12.53-.4.65L728.2 348c-.1.07-.23.12-.37.12zM711.6 337l16.64 9.63 14.3-8.3-5.95-3.42-7.95 4.6c-.27.12-.54.12-.8 0l-9.93-5.72c-.27-.16-.4-.4-.4-.68V322c0-.3.13-.54.4-.7l7.8-4.47V310l-14.16 8.2z" stroke="#fff" stroke-opacity="0" stroke-width="2" fill="#fff"/><path d="M745.13 336.6c-.15 0-.27-.04-.4-.13l-7.4-4.27c-.25-.14-.4-.37-.4-.7v-9.02l-7.8-4.5c-.27-.14-.4-.4-.4-.68v-8.6c0-.3.13-.55.4-.66.2-.15.5-.15.73 0l15.7 9c.25.14.38.4.38.7v18c0 .33-.14.56-.4.7-.13.1-.25.15-.4.15zm-6.68-5.57l5.98 3.44V318.2l-14.2-8.18v6.8l7.84 4.55c.26.14.42.37.4.68z" stroke="#fff" stroke-opacity="0" stroke-width="2" fill="#fff"/><use xlink:href="#f" transform="matrix(1,0,0,1,771,320) translate(0 14.4)"/><use xlink:href="#g" transform="matrix(1,0,0,1,771,320) translate(41.95 14.4)"/><use xlink:href="#h" transform="matrix(1,0,0,1,771,320) translate(103.80000000000001 14.4)"/><path d="M900 406a6 6 0 0 1 6-6h488a6 6 0 0 1 6 6v388a6 6 0 0 1-6 6H906a6 6 0 0 1-6-6z" fill="#fff" fill-opacity="0"/><path d="M903.7 400.47l.45-.18.9-.23.95-.07h2m4 0h4m4 0h4m4 0h4m4 0h4m4 0h4m4 0h4m4 0h4m4 0h4m4 0h4m4 0h4m4 0h4m4 0h4m4 0h4m4 0h4m4 0h4m4 0h4m4 0h4m4 0h4m4 0h4m4 0h4m4 0h4m4 0h4m4 0h4m4 0h4m4 0h4m4 0h4m4 0h4m4 0h4m4 0h4m4 0h4m4 0h4m4 0h4m4 0h4m4 0h4m4 0h4m4 0h4m4 0h4m4 0h4m4 0h4m4 0h4m4 0h4m4 0h4m4 0h4m4 0h4m4 0h4m4 0h4m4 0h4m4 0h4m4 0h4m4 0h4m4 0h4m4 0h4m4 0h4m4 0h4m4 0h4m4 0h4m4 0h4m4 0h4m4 0h4m4 0h4m4 0h2l.94.07.9.22.45.17m3.23 3.24l.18.45.23.9.07.95v1.98m0 3.96v3.96m0 3.96v3.96m0 3.96v3.96m0 3.95v3.95m0 3.96v3.97m0 3.96v3.96m0 3.95v3.96m0 3.97v3.96m0 3.96v3.94m0 3.96v3.96m0 3.96v3.96m0 3.96V503m0 3.96v3.96m0 3.96v3.96m0 3.96v3.96m0 3.95v3.97m0 3.96v3.96m0 3.95v3.96m0 3.97v3.96m0 3.96v3.95m0 3.96v3.97m0 3.95v3.96m0 3.96v3.96m0 3.96v3.96m0 3.96v3.96m0 3.96v3.96m0 3.96v3.96m0 3.96v3.95m0 3.95v3.96m0 3.97v3.96m0 3.96v3.95m0 3.96v3.97m0 3.96v3.96m0 3.95v3.95m0 3.96v3.96m0 3.96v3.96m0 3.96v3.96m0 3.96v3.96m0 3.96v3.96m0 3.96v3.95m0 3.97v3.96m0 3.96v3.95m0 3.96v3.97m0 3.96v3.96m0 3.95v3.96m0 3.97v3.95m0 3.96v3.96m0 3.96v3.96m0 3.96V794l-.07.94-.22.9-.17.45m-3.24 3.23l-.45.18-.9.23-.95.07h-2m-4 0h-4m-4 0h-4m-4 0h-4m-4 0h-4m-4 0h-4m-4 0h-4m-4 0h-4m-4 0h-4m-4 0h-4m-4 0h-4m-4 0h-4m-4 0h-4m-4 0h-4m-4 0h-4m-4 0h-4m-4 0h-4m-4 0h-4m-4 0h-4m-4 0h-4m-4 0h-4m-4 0h-4m-4 0h-4m-4 0h-4m-4 0h-4m-4 0h-4m-4 0h-4m-4 0h-4m-4 0h-4m-4 0h-4m-4 0h-4m-4 0h-4m-4 0h-4m-4 0h-4m-4 0h-4m-4 0h-4m-4 0h-4m-4 0h-4m-4 0h-4m-4 0h-4m-4 0h-4m-4 0h-4m-4 0h-4m-4 0h-4m-4 0h-4m-4 0h-4m-4 0h-4m-4 0h-4m-4 0h-4m-4 0h-4m-4 0h-4m-4 0h-4m-4 0h-4m-4 0h-4m-4 0h-4m-4 0h-4m-4 0h-4m-4 0h-4m-4 0h-4m-4 0h-4m-4 0h-4m-4 0h-2l-.94-.07-.9-.22-.45-.17m-3.23-3.24l-.18-.45-.23-.9-.07-.95v-1.98m0-3.96v-3.96m0-3.96v-3.96m0-3.96v-3.96m0-3.95v-3.95m0-3.96v-3.97m0-3.96v-3.96m0-3.95v-3.96m0-3.97v-3.96m0-3.96v-3.95m0-3.95v-3.96m0-3.96v-3.96m0-3.96V697m0-3.96v-3.96m0-3.96v-3.96m0-3.96v-3.96m0-3.95v-3.97m0-3.96v-3.96m0-3.95v-3.96m0-3.97v-3.96m0-3.96v-3.95m0-3.96v-3.97m0-3.95v-3.96m0-3.96v-3.96m0-3.96v-3.96m0-3.96v-3.96m0-3.96v-3.96m0-3.96v-3.96m0-3.96v-3.95m0-3.95v-3.96m0-3.97v-3.96m0-3.96v-3.95m0-3.96v-3.97m0-3.96v-3.96m0-3.95v-3.95m0-3.96v-3.96m0-3.96v-3.96m0-3.96v-3.96m0-3.96v-3.96m0-3.96v-3.96m0-3.95v-3.96m0-3.97v-3.96m0-3.96v-3.95m0-3.96v-3.97m0-3.96v-3.96m0-3.95v-3.96m0-3.96v-3.96m0-3.96v-3.96m0-3.96v-3.96m0-3.96V406l.07-.94.22-.9.17-.45" stroke="#d86613" fill="none"/><path d="M900 400h56v56h-56v-56z" stroke="#fff" stroke-opacity="0" stroke-width="2" fill="#d86613"/><path d="M945.17 430.24h-3.74v-1.48h3.75v-17.94h-17.94v3.74h-1.5v-3.74c0-.82.68-1.5 1.5-1.5h17.93c.82 0 1.5.68 1.5 1.5v17.94c0 .8-.68 1.48-1.5 1.48zM928.75 446.67H910.8c-.8 0-1.47-.67-1.47-1.5v-17.93c0-.8.66-1.48 1.48-1.48h3.75v1.48h-3.74v17.94h17.95v-3.74h1.48v3.74c0 .82-.67 1.5-1.48 1.5z" stroke="#fff" stroke-opacity="0" stroke-width="2" fill="#fff"/><path d="M939.95 421.3v-1.52h-2.25c-.05-.8-.7-1.43-1.48-1.48v-2.25h-1.5v2.25h-2.23v-2.25H931v2.25h-2.26v-2.25h-1.48v2.25H925v-2.25h-1.47v2.25h-2.24v-2.25h-1.52v2.25c-.8.05-1.43.7-1.48 1.48h-2.25v1.5h2.25v2.25h-2.25V425h2.25v2.26h-2.25v1.48h2.25V431h-2.25v1.5h2.25v2.2h-2.25v1.52h2.25c.05.8.7 1.43 1.48 1.48v2.25h1.5v-2.25h2.25v2.25H925v-2.25h2.26v2.25h1.48v-2.25H931v2.25h1.5v-2.25h2.2v2.25h1.52v-2.25c.8-.05 1.43-.7 1.48-1.48h2.25v-1.5h-2.25v-2.23h2.25V431h-2.25v-2.26h2.25v-1.48h-2.25V425h2.25v-1.47h-2.25v-2.24zm-3.73 14.78c0 .07-.07.14-.14.14h-16.16c-.07 0-.14-.07-.14-.14v-16.16c0-.07.07-.14.14-.14h16.16c.07 0 .14.07.14.14z" stroke="#fff" stroke-opacity="0" stroke-width="2" fill="#fff"/><use xlink:href="#f" transform="matrix(1,0,0,1,971,420) translate(0 14.4)"/><use xlink:href="#i" transform="matrix(1,0,0,1,971,420) translate(41.95 14.4)"/><use xlink:href="#h" transform="matrix(1,0,0,1,971,420) translate(81.9 14.4)"/><path d="M1090 485.6h120V547h-120v-61.4z" fill="#9d5025"/><path d="M1090 480h120v61.4h-120V480z" fill="#f58536"/><path d="M1115.92 483.67h5.65v54.08h-5.65v-54.08zM1126.34 483.67h5.65v54.08h-5.66v-54.08zM1136.75 483.67h5.65v54.08h-5.65v-54.08zM1095.1 483.67h5.64v54.08h-5.65v-54.08zM1105.5 483.67h5.66v54.08h-5.66v-54.08zM1147.17 483.67h5.65v54.08h-5.65v-54.08zM1157.58 483.67h5.66v54.08h-5.66v-54.08zM1168 483.67h5.65v54.08H1168v-54.08zM1178.4 483.67h5.66v54.08h-5.66v-54.08zM1188.82 483.67h5.65v54.08h-5.65v-54.08zM1199.24 483.67h5.65v54.08h-5.66v-54.08z" fill="#fbbf93"/><path d="M1096.56 485.13h4.2v52.62h-4.2v-52.62zM1106.98 485.13h4.2v52.62h-4.2v-52.62zM1117.4 485.13h4.18v52.62h-4.18v-52.62zM1127.8 485.13h4.2v52.62h-4.2v-52.62zM1138.22 485.13h4.18v52.62h-4.18v-52.62zM1148.63 485.13h4.2v52.62h-4.2v-52.62zM1159.05 485.13h4.2v52.62h-4.2v-52.62zM1169.46 485.13h4.2v52.62h-4.2v-52.62zM1179.88 485.13h4.2v52.62h-4.2v-52.62zM1190.3 485.13h4.18v52.62h-4.18v-52.62zM1200.7 485.13h4.2v52.62h-4.2v-52.62z" fill="#fff"/><path d="M1090 645.6h120V707h-120v-61.4z" fill="#9d5025"/><path d="M1090 640h120v61.4h-120V640z" fill="#f58536"/><path d="M1115.92 643.67h5.65v54.08h-5.65v-54.08zM1126.34 643.67h5.65v54.08h-5.66v-54.08zM1136.75 643.67h5.65v54.08h-5.65v-54.08zM1095.1 643.67h5.64v54.08h-5.65v-54.08zM1105.5 643.67h5.66v54.08h-5.66v-54.08zM1147.17 643.67h5.65v54.08h-5.65v-54.08zM1157.58 643.67h5.66v54.08h-5.66v-54.08zM1168 643.67h5.65v54.08H1168v-54.08zM1178.4 643.67h5.66v54.08h-5.66v-54.08zM1188.82 643.67h5.65v54.08h-5.65v-54.08zM1199.24 643.67h5.65v54.08h-5.66v-54.08z" fill="#fbbf93"/><path d="M1096.56 645.13h4.2v52.62h-4.2v-52.62zM1106.98 645.13h4.2v52.62h-4.2v-52.62zM1117.4 645.13h4.18v52.62h-4.18v-52.62zM1127.8 645.13h4.2v52.62h-4.2v-52.62zM1138.22 645.13h4.18v52.62h-4.18v-52.62zM1148.63 645.13h4.2v52.62h-4.2v-52.62zM1159.05 645.13h4.2v52.62h-4.2v-52.62zM1169.46 645.13h4.2v52.62h-4.2v-52.62zM1179.88 645.13h4.2v52.62h-4.2v-52.62zM1190.3 645.13h4.18v52.62h-4.18v-52.62zM1200.7 645.13h4.2v52.62h-4.2v-52.62z" fill="#fff"/><path d="M1150.5 623.62h-1v-19.46h1zm0-40.8h-1V563.4h1z" stroke="#3a414a" stroke-width=".05" fill="#3a414a"/><path d="M1150 638.38l-4.63-14.26h9.27z" fill="#3a414a"/><path d="M1150 640l-5.32-16.38h10.64zm-3.95-15.38l3.95 12.14 3.95-12.14z" stroke="#3a414a" stroke-width=".05" fill="#3a414a"/><path d="M1154.63 562.88h-9.27l4.64-14.27z" fill="#3a414a"/><path d="M1155.32 563.38h-10.64l5.32-16.4zm-9.27-1h7.9l-3.95-12.15z" stroke="#3a414a" stroke-width=".05" fill="#3a414a"/><use xlink:href="#j" transform="matrix(1,0,0,1,1109.0864197530864,582.8299833333334) translate(0 14.222222222222223)"/><use xlink:href="#k" transform="matrix(1,0,0,1,1109.0864197530864,582.8299833333334) translate(52.24691358024692 14.222222222222223)"/><path d="M1160 493a6 6 0 0 1 6-6h228a6 6 0 0 1 6 6v48a6 6 0 0 1-6 6h-228a6 6 0 0 1-6-6z" stroke="#000" stroke-opacity="0" fill="#fff" fill-opacity="0"/><use xlink:href="#l" transform="matrix(1,0,0,1,1165,492) translate(70.61728395061728 30.27777777777778)"/><path d="M1160 649.5a6 6 0 0 1 6-6h228a6 6 0 0 1 6 6v48a6 6 0 0 1-6 6h-228a6 6 0 0 1-6-6z" stroke="#000" stroke-opacity="0" fill="#fff" fill-opacity="0"/><use xlink:href="#m" transform="matrix(1,0,0,1,1165,648.5) translate(71.79012345679013 30.27777777777778)"/><path d="M600 547c22.08 0 40 17.92 40 40s-17.92 40-40 40-40-17.92-40-40 17.92-40 40-40zm0 76.4c20.08 0 36.4-16.32 36.4-36.4s-16.32-36.4-36.4-36.4-36.4 16.32-36.4 36.4 16.32 36.4 36.4 36.4zm23.68-25.52c1.04 0 1.84.88 1.84 1.84v8c0 .96-.8 1.76-1.84 1.76h-7.92c-.96 0-1.76-.8-1.76-1.76v-8c0-.96.8-1.84 1.76-1.84h1.52v-4.32h-7.52v4.32h1.36c1.04 0 1.84.88 1.84 1.84v8c0 .96-.8 1.76-1.84 1.76h-7.92c-1.04 0-1.84-.8-1.84-1.76v-8c0-.96.8-1.84 1.84-1.84h2.96v-6.08c0-1.04.8-1.84 1.76-1.84h2.96v-4.32h-21.76v4.32h2.96c.96 0 1.76.8 1.76 1.84v6.08h2.96c1.04 0 1.84.88 1.84 1.84v8c0 .96-.8 1.76-1.84 1.76h-7.92c-1.04 0-1.84-.8-1.84-1.76v-8c0-.96.8-1.84 1.84-1.84h1.36v-4.32h-7.52v4.32h1.36c1.04 0 1.84.88 1.84 1.84v8c0 .96-.8 1.76-1.84 1.76h-7.76c-1.04 0-1.84-.8-1.84-1.76v-8c0-.96.8-1.84 1.84-1.84h2.8v-6.08c0-1.04.8-1.84 1.76-1.84h4.56v-6.16c0-.96.8-1.76 1.84-1.76h10.88v-4.32h-10.88c-1.04 0-1.84-.88-1.84-1.84v-14.32c0-1.04.8-1.84 1.84-1.84h25.44c1.04 0 1.84.8 1.84 1.84v14.32c0 .96-.8 1.84-1.84 1.84h-10.88v4.32h10.88c1.04 0 1.84.8 1.84 1.76v6.16h4.56c.96 0 1.76.8 1.76 1.84v6.08zm-34.56-23.84h21.76V563.4h-21.76zm1.6 31.84h4.32v-4.32h-4.32zm14.32 0h4.24v-4.32h-4.24zm12.56 0h4.32v-4.32h-4.32zm-39.52 0h4.16v-4.32h-4.16z" stroke="#000" stroke-opacity="0" fill="#4d27aa"/><use xlink:href="#n" transform="matrix(1,0,0,1,530,636) translate(12.049999999999997 14.4)"/><use xlink:href="#o" transform="matrix(1,0,0,1,530,636) translate(57.05 14.4)"/><path d="M300 740h120v120H300V740z" stroke="#000" stroke-opacity="0" fill="url(#p)"/><path d="M390.7 801.9v-18.85h-3.78v13.16h-3.14l-3.14 1.85c-1.57-2.53-4.13-4.53-7.02-5.38-2.56 1.15-5.6 1.08-8.17 0-4.95 1.46-8.42 5.92-8.75 11.08H368v3.76h-15.18c-1 0-1.9-.83-1.9-1.9v-22.55h-28.4v26.93c0 1.7 1.15 3.15 2.56 3.15h37.23v3.77H325.1c-3.55 0-6.36-3.15-6.36-6.92v-40.62c0-3.77 2.8-6.92 6.36-6.92h63.16c3.46 0 6.27 3.15 6.27 6.92v32.54zm.26 35.77c-2.4 1.08-5.04 1.7-7.68 1.7-.74 0-1.48-.1-2.14-.16-3.3-.38-6.44-1.7-9-3.7-4.96-3.9-7.52-10-6.77-16.22.74-5.92 4.37-11.07 9.66-13.76 3.22-1.62 6.85-2.3 10.4-1.85 5.94.7 11.14 4.3 13.87 9.6 1.65 3.25 2.3 6.78 1.8 10.32-.4 3.53-1.8 6.84-4.1 9.53-1.66 1.85-3.73 3.46-6.04 4.54zm-5.94-30.3c-.58 0-1.16-.1-1.74-.1-2.3 0-4.46.55-6.52 1.55-4.2 2.16-7.02 6.23-7.6 10.92-.57 4.93 1.4 9.7 5.3 12.85 2.05 1.6 4.53 2.6 7.1 2.9 2.63.32 5.36-.14 7.75-1.22 1.82-.84 3.48-2.15 4.8-3.6 1.8-2.17 2.97-4.7 3.3-7.55.33-2.77-.16-5.62-1.5-8.15-2.13-4.16-6.26-7-10.88-7.62zm5.7-28v-10c0-1.7-1.16-3.16-2.48-3.16h-63.16c-1.4 0-2.56 1.47-2.56 3.16v10h28.4v-7.54c0-1 .9-1.84 1.9-1.84h32.28c1 0 1.8.84 1.8 1.84l.02 7.54zm-7.52-5.7h-28.48v23.23c1.8-3.3 4.78-6 8.5-7.46-1.16-1.46-1.73-3.23-1.73-5.08 0-4.7 3.78-8.46 8.5-8.46 4.7 0 8.5 3.77 8.5 8.46 0 2-.75 3.85-2 5.4 2.65 1.14 4.97 3 6.7 5.3zm-1.98 54.46c-.33.3-.83.54-1.32.54-.5 0-1-.23-1.4-.54l-5.3-5.3 2.73-2.62 3.97 3.93 9.16-9.15 2.73 2.7zm-6.52-43.77c0-2.6-2.07-4.7-4.7-4.7-2.65 0-4.8 2.1-4.8 4.7 0 1.62 1 3.23 2.48 4 1.4.77 3.13.77 4.62 0 1.5-.77 2.4-2.38 2.4-4zm-48.38 8.16v-3.77h17v3.77zm0 9.38v-3.77h11.4v3.77zm13.3 0v-3.77h5.6v3.77z" stroke="#000" stroke-opacity="0" fill="#fff"/><use xlink:href="#q" transform="matrix(1,0,0,1,270,869) translate(37.05 14.4)"/><path d="M300 520h120v120H300V520z" stroke="#000" stroke-opacity="0" fill="url(#r)"/><path d="M396.9 579.26c2.07 3.55 4.38 7.6 4.38 13.54 0 10-8.1 17.42-21.7 19.9-10 1.8-18.34 8.17-18.42 8.17-.33.25-.75.4-1.16.4-.4 0-.83-.15-1.16-.4-.08 0-8.42-6.36-18.4-8.18-13.63-2.48-21.72-9.9-21.72-19.9 0-5.95 2.3-10 4.38-13.54 1.8-3.06 3.3-5.7 3.3-9.25 0-7.6-5.86-12.37-5.86-12.46-.42-.24-.66-.74-.75-1.24 0-.5.08-.98.4-1.4.1-.08 9.67-11.72 11.9-14.7.32-.4.82-.74 1.4-.74.5-.08 1.07.17 1.48.58 3.55 3.88 7.85 5.95 11.9 5.95 4.53 0 8.17-2 11.63-6.62.76-.9 2.24-.9 3 0 3.45 4.62 7.1 6.6 11.63 6.6 4.04 0 8.34-2.06 11.9-5.94.4-.4.98-.66 1.47-.58.58 0 1.07.33 1.4.75 2.23 2.98 11.8 14.62 11.9 14.7.32.42.4.9.4 1.4-.08.5-.32 1-.74 1.24 0 .1-5.86 4.96-5.86 12.47 0 3.56 1.5 6.2 3.3 9.26zm-18 29.72c4.38-.74 18.67-4.2 18.67-16.18 0-4.96-1.9-8.26-3.9-11.64-1.88-3.22-3.87-6.6-3.87-11.15 0-6.84 3.88-11.8 5.95-14.02-2.15-2.65-6.94-8.5-9.5-11.8-4.04 3.62-8.58 5.6-13.12 5.6-5.12 0-9.33-1.98-13.13-6.27-3.8 4.3-8 6.28-13.13 6.28-4.54 0-9.08-1.98-13.12-5.6-2.56 3.3-7.35 9.15-9.5 11.8 2.15 2.22 5.95 7.18 5.95 14.03 0 4.55-2 7.94-3.88 11.16-2 3.38-3.88 6.68-3.88 11.64 0 11.97 14.28 15.44 18.65 16.18 8.75 1.57 16.18 6.2 18.9 8.1 2.72-1.9 10.15-6.53 18.9-8.1zm6.12-38.97c0 5.87 2.4 9.92 4.45 13.55 1.98 3.47 3.22 5.78 3.22 9.25 0 8.17-11.23 10.8-14.62 11.47-7.1 1.24-13.2 4.2-17.17 6.52-.24.16-.57.24-.9.24-.33 0-.66-.08-.9-.25-3.97-2.32-10.08-5.3-17.1-6.53-3.47-.66-14.7-3.3-14.7-11.47 0-3.47 1.25-5.78 3.23-9.25 2.06-3.63 4.45-7.68 4.45-13.54 0-4.53-1.32-8.9-3.8-12.87-.4-.74-.4-1.57.17-2.23.75-.9 1.5-1.8 2.23-2.8.58-.75 1.57-.9 2.4-.5 3.54 1.98 7.18 2.97 10.9 2.97 4.53 0 8.5-1.24 12.05-3.7.66-.43 1.48-.43 2.14 0 3.55 2.46 7.52 3.7 12.06 3.7 3.7 0 7.35-1 10.9-2.97.82-.4 1.8-.25 2.4.5.73 1 1.47 1.9 2.22 2.8.58.66.58 1.5.16 2.23-2.46 3.96-3.78 8.34-3.78 12.88zm-7.68 30.56c1.98-.33 11.64-2.3 11.64-7.76 0-2.56-.9-4.3-2.73-7.35-2.14-3.63-4.95-8.6-4.95-15.44 0-4.78 1.24-9.4 3.63-13.7-.16-.24-.33-.4-.5-.65-3.63 1.8-7.5 2.72-11.3 2.72-4.8 0-9.25-1.24-13.13-3.72-3.88 2.48-8.34 3.72-13.13 3.72-3.8 0-7.68-.9-11.3-2.73-.17.25-.34.42-.5.66 2.4 4.3 3.63 8.92 3.63 13.7 0 6.86-2.8 11.82-4.95 15.45-1.74 3.05-2.73 4.8-2.73 7.35 0 5.45 9.66 7.43 11.64 7.76 7.02 1.24 13.13 4.13 17.34 6.44 4.2-2.32 10.32-5.2 17.34-6.44zM372.7 581c1.1.98 1.58 2.3 1.58 4.04 0 1.8-.66 3.22-1.98 4.37-1.24 1.1-3.05 1.58-5.28 1.58-1.74 0-3.47-.33-5.2-1.07v-2.22c2.06.66 3.8 1 5.2 1 1.4 0 2.56-.34 3.3-1 .74-.58 1.16-1.5 1.16-2.64 0-2.32-1.4-3.4-4.3-3.4-.9 0-1.8 0-2.64.1v-1.82l5.86-6.44h-8.25v-2.23h11.3v2.14l-5.7 6.1H368.36c1.8 0 3.3.5 4.37 1.5zm-16.25-.5c1.16 1.07 1.73 2.55 1.73 4.37 0 1.82-.66 3.3-1.98 4.46-1.32 1.07-3.05 1.65-5.28 1.65-1.9 0-3.63-.33-5.3-1.07v-2.22c2.08.66 3.8 1 5.3 1 1.4 0 2.47-.34 3.3-1 .74-.66 1.07-1.57 1.07-2.73 0-1.32-.34-2.3-1.08-2.9-.66-.65-1.82-.9-3.47-.9-1.15 0-2.56.1-4.3.25v-1.8l.5-8.35h10.24v2.23h-7.85l-.4 5.7c1.06-.17 1.97-.25 2.8-.25 1.98 0 3.54.5 4.7 1.57z" stroke="#000" stroke-opacity="0" fill="#fff"/><use xlink:href="#s" transform="matrix(1,0,0,1,270,649) translate(71.05 14.4)"/><path d="M1780 180h120v120h-120V180z" stroke="#000" stroke-opacity="0" fill="url(#t)"/><path d="M1834.35 251.2c-.9 2.77-3.47 4.87-6.62 4.87-3.8 0-6.85-3-6.85-6.75s3.06-6.83 6.85-6.83c.4 0 .73.06 1.05.06l7.26-11.62c-1.2-1.28-1.93-2.93-1.93-4.8 0-3.75 3.07-6.75 6.86-6.75 3.8 0 6.85 3 6.85 6.74 0 1.95-.8 3.68-2.08 4.88l5.72 11.54c.24 0 .57-.07.9-.07 3.78 0 6.85 3.06 6.85 6.8-.02 3.76-3.08 6.76-6.87 6.76-3.14 0-5.72-2.1-6.53-4.87zm45.72-28.2l-6.37-2.1c7.58 14.16 6.13 32.16-4.27 43.8-7.34 8.3-18.15 12.74-29.03 12.74-5.9 0-11.86-1.35-17.34-4.05l1.77-3.3c13.95 6.96 31.53 3.66 41.77-7.9 9.44-10.48 10.57-27.5 3.23-40.33l-2.5 7.42-3.55-1.2 3.8-11.2c.3-.96 1.36-1.5 2.33-1.2l11.38 3.77zm-68.54 32.31l1.05-6.36 3.8.68-1.95 11.17c-.08.5-.4 1.04-.9 1.34-.23.15-.63.23-.95.23-.17 0-.4 0-.57-.08l-11.36-3.76 1.2-3.53 6.38 2.12c-7.5-13.8-5.97-30.38 4.36-42 11.37-12.75 30.88-16.36 46.28-8.63l-1.77 3.3c-13.88-7-31.38-3.7-41.7 7.8-9.2 10.4-10.57 25.34-3.87 37.72zm27.82-22.56l-7.1 11.47c.97.84 1.7 1.97 2.1 3.24h11.45c.32-1.35 1.13-2.47 2.18-3.38l-5.57-11.25c-.47.1-.96.16-1.44.16-.56 0-1.05-.07-1.6-.22zm16.05 16.57c0-1.7-1.38-3.06-3.07-3.06-1.7 0-3.06 1.35-3.06 3.07 0 1.66 1.37 3 3.06 3 1.7 0 3.07-1.34 3.07-3zm-30.73 0c0 1.66 1.37 3 3.06 3 1.7 0 3.07-1.34 3.07-3 0-1.7-1.37-3.06-3.07-3.06-1.7 0-3.06 1.35-3.06 3.07zm16.3-26.16c-1.7 0-3.07 1.35-3.07 3 0 1.73 1.37 3.08 3.06 3.08 1.7 0 3.06-1.35 3.06-3.08 0-1.65-1.37-3-3.06-3z" stroke="#000" stroke-opacity="0" fill="#fff"/><use xlink:href="#u" transform="matrix(1,0,0,1,1750,309) translate(31.35 14.4)"/><use xlink:href="#v" transform="matrix(1,0,0,1,1750,309) translate(76.65 14.4)"/><path d="M1780 419.52h120v120h-120v-120z" stroke="#fff" stroke-opacity="0" stroke-width="2" fill="#3b48cc"/><path d="M1860.4 484.3l-10.6 10.55c2-.56 3.65-1.2 5.5-2.24 1.1.65 1.68 1.7 1.9 2.9 0 2.95-6.2 6.14-15.4 7.42-3.05.4-5.55.56-8.6.56h-1.58c-12.95-.24-22.42-4.3-22.42-8 .17-1.2.82-2.15 1.9-2.87 5.02 2.8 13.18 4.5 22.1 4.5h.17l.92-3.2h-1.1c-8.8 0-16.98-1.77-21.28-4.5-1.74-1.1-2.72-2.38-2.72-3.42v-7.44c4.9 3.76 14.64 5.68 24 5.68 1.25 0 2.5 0 3.76-.08l.92-3.2c-1.63.08-3.1.16-4.68.16-13.7 0-24-4.24-24-8 .17-1.27.82-2.23 1.9-2.87 4.42 2.48 11.22 4 18.9 4.4l.1-3.2c-7.56-.4-14.42-2-18.18-4.48-1.74-1.04-2.66-2.32-2.72-3.44v-7.34c4.9 3.76 14.64 5.67 24 5.67h.33l1.74-3.2h-2.07c-13.7 0-24-4.15-24-8 0-3.74 10.3-7.98 24-7.98 4.85 0 8.98.48 13.72 1.6h8.8c-4.83-2.96-13.1-4.8-22.52-4.8-13.17 0-27.2 3.92-27.2 11.2v12.86c.1 1.93.92 3.53 2.44 4.73-1.52 1.28-2.34 2.88-2.45 4.8v12.8c.1 1.98.92 3.58 2.44 4.86-1.52 1.2-2.34 2.8-2.45 4.8v13.1c.43 7.03 14.2 10.8 27.2 10.8s26.78-3.77 27.2-10.88V495.4c-.04-1.9-.9-3.6-2.44-4.8 1.53-1.2 2.34-2.87 2.45-4.78zm-3.2 23.98c0 3.75-10.28 8-24 8-13.7 0-24-4.16-24-8v-7.36c4.9 3.68 14.64 5.68 24 5.68s19.1-2 24-5.68z" stroke="#fff" stroke-opacity="0" stroke-width="2" fill="#fff"/><path d="M1816 463.55c0 1.1-.9 2-2 2s-2-.9-2-2 .9-2 2-2 2 .9 2 2zM1816 485.95c0 1.1-.9 2-2 2s-2-.9-2-2 .9-2 2-2 2 .9 2 2zM1816 508.35c0 1.1-.9 2-2 2s-2-.9-2-2 .9-2 2-2 2 .9 2 2zM1837.2 501.9c-.3 0-.53-.07-.82-.23-.64-.38-.92-1.15-.72-1.85l8.98-29.95h-9.06c-.88.05-1.6-.66-1.6-1.58 0-.28.04-.56.2-.77l9.58-19.22c.28-.54.8-.87 1.45-.87h20.82c.88-.05 1.6.66 1.64 1.53.04.22 0 .38-.04.6l-4.13 12.25h8.97c.88.06 1.6.77 1.6 1.64 0 .44-.16.76-.44 1.1l-35.2 36.8c-.32.38-.72.55-1.24.55zm1-35.2h8.6c.53 0 .97.23 1.3.6.27.44.4.94.23 1.43l-7.7 25.6 28.03-29.25h-7.46c-.88 0-1.64-.66-1.68-1.53 0-.22 0-.43.08-.6l4.1-12.3h-17.6z" stroke="#fff" stroke-opacity="0" stroke-width="2" fill="#fff"/><use xlink:href="#w" transform="matrix(1,0,0,1,1750,548.5167583101609) translate(49.29012345679012 17.77777777777778)"/><use xlink:href="#x" transform="matrix(1,0,0,1,1750,548.5167583101609) translate(33.30246913580247 44.44444444444444)"/><path d="M2139.45 738.74c.57.56 1 .84 1.72 1.12.58.14 1.3.14 1.88 0 .57-.14 1.15-.42 1.72-.98.43-.42.72-.98.87-1.68l5.04-19.18 22.45-90.72c.15-.42.3-.84.72-1.26.3-.28.87-.42 1.3-.42.43 0 1 .14 1.3.42.43.42.57.84.7 1.26l2.46 7c.88 2.52 2.32 4.62 4.04 6.44 1.87 1.82 4.03 3.08 6.48 3.64l21.02 6.16c2.02.7 3.9 1.82 5.18 3.64 1.44 1.68 2.16 3.78 2.45 6.02.14 2.66-.3 5.46-1.3 7.84-.86 2.52-2.44 4.76-4.3 6.58l-5.2 4.76c-4.17 3.92-7.2 9.1-8.5 14.84-1.43 5.74-1.14 11.76.73 17.22l8.64 25.9c.14.56.43 1.12.86 1.54.43.42 1 .7 1.58.98.43.14 1.15.14 1.73.14.6-.14 1.02-.28 1.6-.7 10.8-8.54 19.3-20.16 24.32-33.6 4.9-13.44 6.34-28.14 3.9-42.28-2.6-15.26-9.37-29.26-19.44-40.32-10.08-10.92-23.04-18.48-37.15-21.56-9.8-2.1-20-2.1-29.8.28-9.8 2.24-19.14 6.72-27.2 13.02-8.07 6.3-14.83 14.42-19.87 23.8-5.04 9.24-8.2 19.6-9.36 30.24 0 .84 0 1.82.3 2.66.28.84.7 1.54 1.28 2.24.58.56 1.44 1.12 2.16 1.4.87.28 1.73.28 2.45.14 2.87-.28 5.75.14 8.34 1.12 2.74.98 5.18 2.52 7.34 4.48 2.02 2.1 3.74 4.62 4.9 7.42 1.15 2.8 1.72 5.74 1.72 8.82v11.2c.15 11.2 4.04 21.98 10.95 30.38z" stroke="#000" stroke-opacity="0"/><path d="M2060 766a6 6 0 0 1 6-6h228a6 6 0 0 1 6 6v51.33a6 6 0 0 1-6 6h-228a6 6 0 0 1-6-6z" stroke="#000" stroke-opacity="0" fill="#fff" fill-opacity="0"/><use xlink:href="#y" transform="matrix(1,0,0,1,2065,765) translate(27.46913580246914 31.27777777777778)"/><use xlink:href="#z" transform="matrix(1,0,0,1,2065,765) translate(138.39506172839506 31.27777777777778)"/><path d="M-105.18 595.8h-69.7c-2.8 0-5.12-2.28-5.12-5.07v-45.65c0-2.8 2.32-5.08 5.12-5.08h69.7c2.8 0 5.1 2.3 5.1 5.08v45.6c0 2.84-2.23 5.12-5.02 5.12h-.08zm-69.62-52.4c-.96 0-1.76.73-1.76 1.68v45.6c0 .94.8 1.72 1.76 1.72h69.7c.96 0 1.67-.78 1.67-1.73v-45.6c0-.94-.7-1.67-1.67-1.67zM-106 618h-68.05c-3.28-.02-5.92-2.65-5.92-5.92v-7.35c0-3.27 2.64-5.94 5.92-5.96H-106c3.28 0 6 2.67 6 5.96v7.35c0 3.3-2.72 5.92-6 5.92zm-68.05-15.84c-1.36 0-2.48 1.17-2.48 2.57v7.35c0 1.4 1.12 2.52 2.48 2.54H-106c1.44 0 2.56-1.16 2.56-2.58v-7.3c0-1.43-1.12-2.58-2.56-2.58z" stroke="#fff" stroke-opacity="0" fill="#232f3e"/><path d="M-108.1 589.45h-63.8c-.95 0-1.7-.78-1.7-1.7V548c0-.92.75-1.7 1.7-1.7h63.8c.95 0 1.7.78 1.7 1.7v39.76c0 .9-.75 1.7-1.7 1.7zm-62.06-3.4h60.32V549.7h-60.32zM-127.26 605.13h19.16c1.13 0 1.7.57 1.7 1.7V610c0 1.14-.57 1.7-1.7 1.7h-19.16c-1.12 0-1.7-.56-1.7-1.7v-3.17c0-1.13.58-1.7 1.7-1.7z" stroke="#fff" stroke-opacity="0" fill="#232f3e"/><use xlink:href="#A" transform="matrix(1,0,0,1,-210,627) translate(41.69753086419753 17.77777777777778)"/><path d="M-99.57 579H99.47a.5.5 0 0 1 .5.5.5.5 0 0 0 .5.5h183.15" stroke="#3a414a" fill="none"/><path d="M-99.56 579.5h-.5v-1h.5z" stroke="#3a414a" stroke-width=".05" fill="#3a414a"/><path d="M298.38 580l-14.26 4.63v-9.26z" stroke="#3a414a" fill="#3a414a"/><path d="M420.5 580h123.8" stroke="#3a414a" fill="none"/><path d="M420.5 580.5h-.5v-1h.5z" stroke="#3a414a" stroke-width=".05" fill="#3a414a"/><path d="M559.07 580l-14.27 4.63v-9.26z" stroke="#3a414a" fill="#3a414a"/><path d="M936.6 514h-65.58l-.88.07-.84.2-.8.33-.73.45-.66.56-.55.67-.45.73-.33.8-.2.84-.07.88v61.5l-.08 1-.24 1-.4.93-.52.87-.66.78-.78.66-.87.53-.94.38-.98.24-1 .08H640.5v-1h218.48l.88-.07.84-.2.8-.33.73-.45.66-.56.55-.67.45-.73.33-.8.2-.84.07-.88v-61.5l.08-1 .24-1 .4-.93.52-.87.66-.78.78-.66.87-.53.94-.38.98-.24 1-.08h65.63zm137.02 0H973.06v-1h100.56z" stroke="#3a414a" stroke-width=".05" fill="#3a414a"/><path d="M640.5 587.5h-.53l.03-.5-.02-.5h.53z" fill="#3a414a"/><path d="M640.54 587.52h-.6l.03-.52v-.52h.57zm-.53-1l.02.48-.02.48h.5v-.96z" stroke="#3a414a" stroke-width=".05" fill="#3a414a"/><path d="M1088.38 513.5l-14.26 4.63v-9.26z" fill="#3a414a"/><path d="M1090 513.5l-16.38 5.32v-10.64zm-15.38 3.95l12.14-3.95-12.14-3.95z" stroke="#3a414a" stroke-width=".05" fill="#3a414a"/><use xlink:href="#B" transform="matrix(1,0,0,1,936.6153524625959,502.8333333333333) translate(0 14.222222222222223)"/><path d="M860.02 586.58l1 .24.93.4.87.52.78.66.66.78.53.87.38.94.24.98.08 1v74.5l.07.88.2.84.33.8.45.73.56.66.67.55.73.45.8.33.84.2.88.07h75.93v1h-75.97l-1-.08-1-.24-.93-.4-.87-.52-.78-.66-.66-.78-.53-.87-.38-.94-.24-.98-.08-1v-74.5l-.07-.88-.2-.84-.33-.8-.45-.73-.56-.66-.67-.55-.73-.45-.8-.33-.84-.2-.88-.07H640.5v-1h218.52zm213.6 86.42v1h-96.1v-1z" stroke="#3a414a" stroke-width=".05" fill="#3a414a"/><path d="M640.5 587.5h-.53l.03-.5-.02-.5h.53z" fill="#3a414a"/><path d="M640.54 587.52h-.6l.03-.52v-.52h.57zm-.53-1l.02.48-.02.48h.5v-.96z" stroke="#3a414a" stroke-width=".05" fill="#3a414a"/><path d="M1088.38 673.5l-14.26 4.63v-9.26z" fill="#3a414a"/><path d="M1090 673.5l-16.38 5.32v-10.64zm-15.38 3.95l12.14-3.95-12.14-3.95z" stroke="#3a414a" stroke-width=".05" fill="#3a414a"/><use xlink:href="#C" transform="matrix(1,0,0,1,946.9536117312413,662.8333333333334) translate(0 14.222222222222223)"/><path d="M-140 634.38V794a6 6 0 0 0 6 6h417.62" stroke="#3a414a" fill="none"/><path d="M-140 619.62l4.63 14.26h-9.26zM298.38 800l-14.26 4.63v-9.26z" stroke="#3a414a" fill="#3a414a"/><path d="M1073.62 699.06h-312.6l-.88.07-.84.2-.8.33-.73.45-.66.57-.55.66-.45.73-.33.8-.2.84-.07.88v89.44l-.08 1-.24 1-.4.93-.52.87-.66.78-.78.66-.87.53-.94.38-.98.24-1 .08H436.38v-1h312.6l.88-.07.84-.2.8-.33.73-.45.66-.56.55-.67.45-.73.33-.8.2-.84.07-.88v-89.44l.08-1 .24-1 .4-.93.52-.86.66-.78.78-.66.87-.53.94-.4.98-.23 1-.08h312.64z" stroke="#3a414a" stroke-width=".05" fill="#3a414a"/><path d="M435.88 804.63L421.62 800l14.26-4.63z" fill="#3a414a"/><path d="M436.38 805.32L420 800l16.38-5.32zM423.24 800l12.14 3.95v-7.9z" stroke="#3a414a" stroke-width=".05" fill="#3a414a"/><path d="M1088.38 698.56l-14.26 4.63v-9.28z" fill="#3a414a"/><path d="M1090 698.56l-16.38 5.32v-10.64zm-15.38 3.95l12.14-3.94-12.14-3.95z" stroke="#3a414a" stroke-width=".05" fill="#3a414a"/><path d="M1780 707h120v120h-120V707z" stroke="#fff" stroke-opacity="0" stroke-width="2" fill="#3b48cc"/><path d="M1857.53 752.17c0-4.63-9.1-6.8-17.6-6.8-8.5 0-17.6 2.17-17.6 6.8 0 .26.02.43.06.7v28.85c-.08 4.83 9.06 6.86 17.6 6.86 8.57 0 17.6-2.1 17.6-6.74v-29.67zm-17.57-3.6c9.3 0 14.4 2.56 14.4 3.6 0 1.03-5.05 3.58-14.4 3.58-9.38 0-14.4-2.5-14.4-3.58 0-1.04 5.05-3.6 14.4-3.6zm14.4 33.27c0 1.04-5.05 3.55-14.4 3.55-9.35 0-14.4-2.52-14.4-3.55v-5.06c3.36 1.85 9.04 2.7 14.4 2.7 5.36 0 10.97-.85 14.4-2.67zm0-9.1c0 1.03-5.05 3.58-14.4 3.58-9.38 0-14.4-2.55-14.4-3.6h.04v-6.08c3.4 1.8 9.03 2.68 14.4 2.68 5.36 0 10.97-.87 14.4-2.64zm0-10.2c0 1.03-5.05 3.62-14.4 3.62-9.38 0-14.4-2.6-14.4-3.63h.04v-6.22c3.42 1.83 9 2.65 14.4 2.65s11.07-.87 14.4-2.72zM1805.46 803.82H1816v3.2h-14.4c-.88 0-1.6-.72-1.6-1.6V791h3.2v10.5l12-11.98 2.24 2.26zM1880 791.02v14.4c0 .9-.7 1.6-1.6 1.6H1864v-3.2h10.54l-11.82-11.85 2.26-2.25 11.82 11.8v-10.5zM1880 728.62v14.4h-3.2v-10.57l-11.82 11.83-2.26-2.26 11.8-11.8H1864V727h14.4c.9 0 1.6.7 1.6 1.6zM1817.44 742.2l-2.23 2.24-12-12V743h-3.2v-14.4c0-.9.7-1.62 1.6-1.62h14.4v3.2h-10.54zM1815.46 781.34c-9.78-3.5-15.38-8.9-15.38-14.74s5.6-11.2 15.38-14.74l1.08 3c-8.3 3.02-13.27 7.38-13.27 11.74s4.98 8.72 13.27 11.73zM1863.65 781.7l-1.03-3.06c8.88-3 14.18-7.48 14.18-12.04 0-4.56-5.3-9.05-14.18-12.07l1.03-3.02c10.4 3.5 16.35 9.03 16.35 15.1 0 6.06-5.96 11.56-16.35 15.1z" stroke="#fff" stroke-opacity="0" stroke-width="2" fill="#fff"/><use xlink:href="#D" transform="matrix(1,0,0,1,1750,836) translate(22.808641975308646 17.77777777777778)"/><use xlink:href="#E" transform="matrix(1,0,0,1,1750,836) translate(110.40123456790124 17.77777777777778)"/><path d="M1159.5 673.5h-63.12" stroke="#3a414a" fill="none"/><path d="M1160 674h-.5v-1h.5z" stroke="#3a414a" stroke-width=".05" fill="#3a414a"/><path d="M1081.62 673.5l14.26-4.63v9.26z" stroke="#3a414a" fill="#3a414a"/><path d="M1763.62 766.5v1h-168.25v-1zm-273.6-93.42l1 .24.93.38.87.54.78.66.66.78.53.87.38.94.24.98.08 1v76.85h-1v-76.8l-.07-.9-.2-.83-.33-.8-.45-.73-.56-.66-.67-.55-.73-.45-.8-.33-.84-.2-.88-.07H1210.5v-1h278.52z" stroke="#3a414a" stroke-width=".05" fill="#3a414a"/><path d="M1210.5 674h-.5v-1h.5z" fill="#3a414a"/><path d="M1210.54 674.02h-.57v-1.05h.57zm-.5-1v.95h.45v-.95z" stroke="#3a414a" stroke-width=".05" fill="#3a414a"/><path d="M1778.38 767l-14.26 4.63v-9.26z" fill="#3a414a"/><path d="M1780 767l-16.38 5.32v-10.64zm-15.38 3.95l12.14-3.95-12.14-3.95z" stroke="#3a414a" stroke-width=".05" fill="#3a414a"/><use xlink:href="#F" transform="matrix(1,0,0,1,1455.273339306895,756.3333333333334) translate(0 14.222222222222223)"/><use xlink:href="#G" transform="matrix(1,0,0,1,1455.273339306895,756.3333333333334) translate(70.07407407407408 14.222222222222223)"/><path d="M1916.38 767H1944a6 6 0 0 0 6-6V243.52a6 6 0 0 0-6-6h-27.62" stroke="#3a414a" fill="none"/><path d="M1901.62 767l14.26-4.63v9.26zM1901.62 237.52l14.26-4.64v9.28z" stroke="#3a414a" fill="#3a414a"/><path d="M1916.38 240H1934a6 6 0 0 1 6 6v226.32a6 6 0 0 1-6 6h-17.62" stroke="#3a414a" fill="none"/><path d="M1901.62 240l14.26-4.63v9.26zM1901.62 478.32l14.26-4.64v9.27z" stroke="#3a414a" fill="#3a414a"/><path d="M1720 480c0 11.05-8.95 20-20 20s-20-8.95-20-20 8.95-20 20-20 20 8.95 20 20z" stroke="#3a414a" fill="#fff7a1"/><path d="M1445.25 667.52l-.08 1-.24 1-.4.93-.52.87-.65.77-.78.66-.87.53-.94.38-1 .24-1 .08H1226.4v-1h212.35l.88-.07.85-.2.8-.33.73-.45.66-.56.56-.67.45-.74.33-.8.2-.84.07-.88V496.1h1zm217.87-187.02h-116.8v-1h116.8z" stroke="#3a414a" stroke-width=".05" fill="#3a414a"/><path d="M1225.88 678.13l-14.26-4.63 14.26-4.64z" fill="#3a414a"/><path d="M1226.38 678.82L1210 673.5l16.38-5.33zm-13.14-5.32l12.14 3.95v-7.9z" stroke="#3a414a" stroke-width=".05" fill="#3a414a"/><path d="M1677.88 480l-14.26 4.63v-9.26z" fill="#3a414a"/><path d="M1679.5 480l-16.38 5.32v-10.64zm-15.38 3.95l12.14-3.95-12.14-3.95z" stroke="#3a414a" stroke-width=".05" fill="#3a414a"/><g><use xlink:href="#H" transform="matrix(1,0,0,1,1343.169597159464,474.77252407251984) translate(0 14.222222222222223)"/><use xlink:href="#I" transform="matrix(1,0,0,1,1343.169597159464,474.77252407251984) translate(53.23456790123458 14.222222222222223)"/><use xlink:href="#J" transform="matrix(1,0,0,1,1343.169597159464,474.77252407251984) translate(140.0493827160494 14.222222222222223)"/></g><path d="M1763.62 479.52h-26.75" stroke="#3a414a" fill="none"/><path d="M1778.38 479.52l-14.26 4.63v-9.27zM1722.1 479.52l14.27-4.64v9.27z" stroke="#3a414a" fill="#3a414a"/><path d="M1700 501v163a6 6 0 0 0 6 6h377.65" stroke="#3a414a" fill="none"/><path d="M1699.98 500.5l.52-.02v.53h-1v-.56z" stroke="#3a414a" stroke-width=".05" fill="#3a414a"/><path d="M2098.4 670l-14.25 4.63v-9.26z" stroke="#3a414a" fill="#3a414a"/><defs><path fill="#232f3e" d="M205 0l-28-72H64L36 0H1l101-248h38L239 0h-34zm-38-99l-47-123c-12 45-31 82-46 123h93" id="K"/><path fill="#232f3e" d="M266 0h-40l-56-210L115 0H75L2-248h35L96-30l15-64 43-154h32l59 218 59-218h35" id="L"/><path fill="#232f3e" d="M185-189c-5-48-123-54-124 2 14 75 158 14 163 119 3 78-121 87-175 55-17-10-28-26-33-46l33-7c5 56 141 63 141-1 0-78-155-14-162-118-5-82 145-84 179-34 5 7 8 16 11 25" id="M"/><g id="a"><use transform="matrix(0.05,0,0,0.05,0,0)" xlink:href="#K"/><use transform="matrix(0.05,0,0,0.05,11.35,0)" xlink:href="#L"/><use transform="matrix(0.05,0,0,0.05,28.299999999999997,0)" xlink:href="#M"/></g><path fill="#232f3e" d="M212-179c-10-28-35-45-73-45-59 0-87 40-87 99 0 60 29 101 89 101 43 0 62-24 78-52l27 14C228-24 195 4 139 4 59 4 22-46 18-125c-6-104 99-153 187-111 19 9 31 26 39 46" id="N"/><path fill="#232f3e" d="M24 0v-261h32V0H24" id="O"/><path fill="#232f3e" d="M100-194c62-1 85 37 85 99 1 63-27 99-86 99S16-35 15-95c0-66 28-99 85-99zM99-20c44 1 53-31 53-75 0-43-8-75-51-75s-53 32-53 75 10 74 51 75" id="P"/><path fill="#232f3e" d="M84 4C-5 8 30-112 23-190h32v120c0 31 7 50 39 49 72-2 45-101 50-169h31l1 190h-30c-1-10 1-25-2-33-11 22-28 36-60 37" id="Q"/><path fill="#232f3e" d="M85-194c31 0 48 13 60 33l-1-100h32l1 261h-30c-2-10 0-23-3-31C134-8 116 4 85 4 32 4 16-35 15-94c0-66 23-100 70-100zm9 24c-40 0-46 34-46 75 0 40 6 74 45 74 42 0 51-32 51-76 0-42-9-74-50-73" id="R"/><g id="b"><use transform="matrix(0.05,0,0,0.05,0,0)" xlink:href="#N"/><use transform="matrix(0.05,0,0,0.05,12.950000000000001,0)" xlink:href="#O"/><use transform="matrix(0.05,0,0,0.05,16.900000000000002,0)" xlink:href="#P"/><use transform="matrix(0.05,0,0,0.05,26.900000000000002,0)" xlink:href="#Q"/><use transform="matrix(0.05,0,0,0.05,36.900000000000006,0)" xlink:href="#R"/></g><path fill="#248814" d="M137 0h-34L2-248h35l83 218 83-218h36" id="S"/><path fill="#248814" d="M24-231v-30h32v30H24zM24 0v-190h32V0H24" id="T"/><path fill="#248814" d="M114-163C36-179 61-72 57 0H25l-1-190h30c1 12-1 29 2 39 6-27 23-49 58-41v29" id="U"/><path fill="#248814" d="M59-47c-2 24 18 29 38 22v24C64 9 27 4 27-40v-127H5v-23h24l9-43h21v43h35v23H59v120" id="V"/><path fill="#248814" d="M84 4C-5 8 30-112 23-190h32v120c0 31 7 50 39 49 72-2 45-101 50-169h31l1 190h-30c-1-10 1-25-2-33-11 22-28 36-60 37" id="W"/><path fill="#248814" d="M141-36C126-15 110 5 73 4 37 3 15-17 15-53c-1-64 63-63 125-63 3-35-9-54-41-54-24 1-41 7-42 31l-33-3c5-37 33-52 76-52 45 0 72 20 72 64v82c-1 20 7 32 28 27v20c-31 9-61-2-59-35zM48-53c0 20 12 33 32 33 41-3 63-29 60-74-43 2-92-5-92 41" id="X"/><path fill="#248814" d="M24 0v-261h32V0H24" id="Y"/><g id="c"><use transform="matrix(0.05,0,0,0.05,0,0)" xlink:href="#S"/><use transform="matrix(0.05,0,0,0.05,11.65,0)" xlink:href="#T"/><use transform="matrix(0.05,0,0,0.05,15.600000000000001,0)" xlink:href="#U"/><use transform="matrix(0.05,0,0,0.05,21.55,0)" xlink:href="#V"/><use transform="matrix(0.05,0,0,0.05,26.55,0)" xlink:href="#W"/><use transform="matrix(0.05,0,0,0.05,36.55,0)" xlink:href="#X"/><use transform="matrix(0.05,0,0,0.05,46.55,0)" xlink:href="#Y"/></g><path fill="#248814" d="M30-248c87 1 191-15 191 75 0 78-77 80-158 76V0H30v-248zm33 125c57 0 124 11 124-50 0-59-68-47-124-48v98" id="Z"/><path fill="#248814" d="M108 0H70L1-190h34L89-25l56-165h34" id="aa"/><path fill="#248814" d="M100-194c63 0 86 42 84 106H49c0 40 14 67 53 68 26 1 43-12 49-29l28 8c-11 28-37 45-77 45C44 4 14-33 15-96c1-61 26-98 85-98zm52 81c6-60-76-77-97-28-3 7-6 17-6 28h103" id="ab"/><g id="d"><use transform="matrix(0.05,0,0,0.05,0,0)" xlink:href="#Z"/><use transform="matrix(0.05,0,0,0.05,12,0)" xlink:href="#U"/><use transform="matrix(0.05,0,0,0.05,17.95,0)" xlink:href="#T"/><use transform="matrix(0.05,0,0,0.05,21.9,0)" xlink:href="#aa"/><use transform="matrix(0.05,0,0,0.05,30.899999999999995,0)" xlink:href="#X"/><use transform="matrix(0.05,0,0,0.05,40.9,0)" xlink:href="#V"/><use transform="matrix(0.05,0,0,0.05,45.9,0)" xlink:href="#ab"/></g><path fill="#248814" d="M212-179c-10-28-35-45-73-45-59 0-87 40-87 99 0 60 29 101 89 101 43 0 62-24 78-52l27 14C228-24 195 4 139 4 59 4 22-46 18-125c-6-104 99-153 187-111 19 9 31 26 39 46" id="ac"/><path fill="#248814" d="M100-194c62-1 85 37 85 99 1 63-27 99-86 99S16-35 15-95c0-66 28-99 85-99zM99-20c44 1 53-31 53-75 0-43-8-75-51-75s-53 32-53 75 10 74 51 75" id="ad"/><path fill="#248814" d="M85-194c31 0 48 13 60 33l-1-100h32l1 261h-30c-2-10 0-23-3-31C134-8 116 4 85 4 32 4 16-35 15-94c0-66 23-100 70-100zm9 24c-40 0-46 34-46 75 0 40 6 74 45 74 42 0 51-32 51-76 0-42-9-74-50-73" id="ae"/><g id="e"><use transform="matrix(0.05,0,0,0.05,0,0)" xlink:href="#ac"/><use transform="matrix(0.05,0,0,0.05,12.950000000000001,0)" xlink:href="#Y"/><use transform="matrix(0.05,0,0,0.05,16.900000000000002,0)" xlink:href="#ad"/><use transform="matrix(0.05,0,0,0.05,26.900000000000002,0)" xlink:href="#W"/><use transform="matrix(0.05,0,0,0.05,36.900000000000006,0)" xlink:href="#ae"/></g><path fill="#d86613" d="M30 0v-248h187v28H63v79h144v27H63v87h162V0H30" id="af"/><path fill="#d86613" d="M212-179c-10-28-35-45-73-45-59 0-87 40-87 99 0 60 29 101 89 101 43 0 62-24 78-52l27 14C228-24 195 4 139 4 59 4 22-46 18-125c-6-104 99-153 187-111 19 9 31 26 39 46" id="ag"/><path fill="#d86613" d="M185-189c-5-48-123-54-124 2 14 75 158 14 163 119 3 78-121 87-175 55-17-10-28-26-33-46l33-7c5 56 141 63 141-1 0-78-155-14-162-118-5-82 145-84 179-34 5 7 8 16 11 25" id="ah"/><g id="f"><use transform="matrix(0.05,0,0,0.05,0,0)" xlink:href="#af"/><use transform="matrix(0.05,0,0,0.05,12,0)" xlink:href="#ag"/><use transform="matrix(0.05,0,0,0.05,24.950000000000003,0)" xlink:href="#ah"/></g><path fill="#d86613" d="M24 0v-261h32V0H24" id="ai"/><path fill="#d86613" d="M84 4C-5 8 30-112 23-190h32v120c0 31 7 50 39 49 72-2 45-101 50-169h31l1 190h-30c-1-10 1-25-2-33-11 22-28 36-60 37" id="aj"/><path fill="#d86613" d="M135-143c-3-34-86-38-87 0 15 53 115 12 119 90S17 21 10-45l28-5c4 36 97 45 98 0-10-56-113-15-118-90-4-57 82-63 122-42 12 7 21 19 24 35" id="ak"/><path fill="#d86613" d="M59-47c-2 24 18 29 38 22v24C64 9 27 4 27-40v-127H5v-23h24l9-43h21v43h35v23H59v120" id="al"/><path fill="#d86613" d="M100-194c63 0 86 42 84 106H49c0 40 14 67 53 68 26 1 43-12 49-29l28 8c-11 28-37 45-77 45C44 4 14-33 15-96c1-61 26-98 85-98zm52 81c6-60-76-77-97-28-3 7-6 17-6 28h103" id="am"/><path fill="#d86613" d="M114-163C36-179 61-72 57 0H25l-1-190h30c1 12-1 29 2 39 6-27 23-49 58-41v29" id="an"/><g id="g"><use transform="matrix(0.05,0,0,0.05,0,0)" xlink:href="#ag"/><use transform="matrix(0.05,0,0,0.05,12.950000000000001,0)" xlink:href="#ai"/><use transform="matrix(0.05,0,0,0.05,16.900000000000002,0)" xlink:href="#aj"/><use transform="matrix(0.05,0,0,0.05,26.900000000000002,0)" xlink:href="#ak"/><use transform="matrix(0.05,0,0,0.05,35.900000000000006,0)" xlink:href="#al"/><use transform="matrix(0.05,0,0,0.05,40.900000000000006,0)" xlink:href="#am"/><use transform="matrix(0.05,0,0,0.05,50.900000000000006,0)" xlink:href="#an"/></g><path fill="#d86613" d="M100-194c62-1 85 37 85 99 1 63-27 99-86 99S16-35 15-95c0-66 28-99 85-99zM99-20c44 1 53-31 53-75 0-43-8-75-51-75s-53 32-53 75 10 74 51 75" id="ao"/><path fill="#d86613" d="M117-194c89-4 53 116 60 194h-32v-121c0-31-8-49-39-48C34-167 62-67 57 0H25l-1-190h30c1 10-1 24 2 32 11-22 29-35 61-36" id="ap"/><path fill="#d86613" d="M141-36C126-15 110 5 73 4 37 3 15-17 15-53c-1-64 63-63 125-63 3-35-9-54-41-54-24 1-41 7-42 31l-33-3c5-37 33-52 76-52 45 0 72 20 72 64v82c-1 20 7 32 28 27v20c-31 9-61-2-59-35zM48-53c0 20 12 33 32 33 41-3 63-29 60-74-43 2-92-5-92 41" id="aq"/><path fill="#d86613" d="M24-231v-30h32v30H24zM24 0v-190h32V0H24" id="ar"/><g id="h"><use transform="matrix(0.05,0,0,0.05,0,0)" xlink:href="#ag"/><use transform="matrix(0.05,0,0,0.05,12.950000000000001,0)" xlink:href="#ao"/><use transform="matrix(0.05,0,0,0.05,22.950000000000003,0)" xlink:href="#ap"/><use transform="matrix(0.05,0,0,0.05,32.95,0)" xlink:href="#al"/><use transform="matrix(0.05,0,0,0.05,37.95,0)" xlink:href="#aq"/><use transform="matrix(0.05,0,0,0.05,47.95,0)" xlink:href="#ar"/><use transform="matrix(0.05,0,0,0.05,51.900000000000006,0)" xlink:href="#ap"/><use transform="matrix(0.05,0,0,0.05,61.900000000000006,0)" xlink:href="#am"/><use transform="matrix(0.05,0,0,0.05,71.9,0)" xlink:href="#an"/></g><path fill="#d86613" d="M101-251c82-7 93 87 43 132L82-64C71-53 59-42 53-27h129V0H18c2-99 128-94 128-182 0-28-16-43-45-43s-46 15-49 41l-32-3c6-41 34-60 81-64" id="as"/><g id="i"><use transform="matrix(0.05,0,0,0.05,0,0)" xlink:href="#af"/><use transform="matrix(0.05,0,0,0.05,12,0)" xlink:href="#ag"/><use transform="matrix(0.05,0,0,0.05,24.950000000000003,0)" xlink:href="#as"/></g><path fill="#333" d="M240-174c0 40-23 61-54 70L253 0h-59l-57-94H76V0H24v-248c93 4 217-23 216 74zM76-134c48-2 112 12 112-38 0-48-66-32-112-35v73" id="at"/><path fill="#333" d="M24 0v-248h195v40H76v63h132v40H76v65h150V0H24" id="au"/><path fill="#333" d="M169-182c-1-43-94-46-97-3 18 66 151 10 154 114 3 95-165 93-204 36-6-8-10-19-12-30l50-8c3 46 112 56 116 5-17-69-150-10-154-114-4-87 153-88 188-35 5 8 8 18 10 28" id="av"/><path fill="#333" d="M136-208V0H84v-208H4v-40h212v40h-80" id="aw"/><g id="j"><use transform="matrix(0.04938271604938272,0,0,0.04938271604938272,0,0)" xlink:href="#at"/><use transform="matrix(0.04938271604938272,0,0,0.04938271604938272,12.790123456790125,0)" xlink:href="#au"/><use transform="matrix(0.04938271604938272,0,0,0.04938271604938272,24.641975308641978,0)" xlink:href="#av"/><use transform="matrix(0.04938271604938272,0,0,0.04938271604938272,36.49382716049383,0)" xlink:href="#aw"/></g><path fill="#333" d="M199 0l-22-63H83L61 0H9l90-248h61L250 0h-51zm-33-102l-36-108c-10 38-24 72-36 108h72" id="ax"/><path fill="#333" d="M24-248c93 1 206-16 204 79-1 75-69 88-152 82V0H24v-248zm52 121c47 0 100 7 100-41 0-47-54-39-100-39v80" id="ay"/><path fill="#333" d="M24 0v-248h52V0H24" id="az"/><g id="k"><use transform="matrix(0.04938271604938272,0,0,0.04938271604938272,0,0)" xlink:href="#ax"/><use transform="matrix(0.04938271604938272,0,0,0.04938271604938272,12.790123456790125,0)" xlink:href="#ay"/><use transform="matrix(0.04938271604938272,0,0,0.04938271604938272,24.641975308641978,0)" xlink:href="#az"/></g><path fill="#3a414a" d="M63-220v92h138v28H63V0H30v-248h175v28H63" id="aA"/><path fill="#3a414a" d="M114-163C36-179 61-72 57 0H25l-1-190h30c1 12-1 29 2 39 6-27 23-49 58-41v29" id="aB"/><path fill="#3a414a" d="M100-194c62-1 85 37 85 99 1 63-27 99-86 99S16-35 15-95c0-66 28-99 85-99zM99-20c44 1 53-31 53-75 0-43-8-75-51-75s-53 32-53 75 10 74 51 75" id="aC"/><path fill="#3a414a" d="M117-194c89-4 53 116 60 194h-32v-121c0-31-8-49-39-48C34-167 62-67 57 0H25l-1-190h30c1 10-1 24 2 32 11-22 29-35 61-36" id="aD"/><path fill="#3a414a" d="M59-47c-2 24 18 29 38 22v24C64 9 27 4 27-40v-127H5v-23h24l9-43h21v43h35v23H59v120" id="aE"/><path fill="#3a414a" d="M100-194c63 0 86 42 84 106H49c0 40 14 67 53 68 26 1 43-12 49-29l28 8c-11 28-37 45-77 45C44 4 14-33 15-96c1-61 26-98 85-98zm52 81c6-60-76-77-97-28-3 7-6 17-6 28h103" id="aF"/><path fill="#3a414a" d="M85-194c31 0 48 13 60 33l-1-100h32l1 261h-30c-2-10 0-23-3-31C134-8 116 4 85 4 32 4 16-35 15-94c0-66 23-100 70-100zm9 24c-40 0-46 34-46 75 0 40 6 74 45 74 42 0 51-32 51-76 0-42-9-74-50-73" id="aG"/><g id="l"><use transform="matrix(0.06172839506172839,0,0,0.06172839506172839,0,0)" xlink:href="#aA"/><use transform="matrix(0.06172839506172839,0,0,0.06172839506172839,13.518518518518517,0)" xlink:href="#aB"/><use transform="matrix(0.06172839506172839,0,0,0.06172839506172839,20.864197530864196,0)" xlink:href="#aC"/><use transform="matrix(0.06172839506172839,0,0,0.06172839506172839,33.20987654320987,0)" xlink:href="#aD"/><use transform="matrix(0.06172839506172839,0,0,0.06172839506172839,45.55555555555555,0)" xlink:href="#aE"/><use transform="matrix(0.06172839506172839,0,0,0.06172839506172839,51.72839506172839,0)" xlink:href="#aF"/><use transform="matrix(0.06172839506172839,0,0,0.06172839506172839,64.07407407407408,0)" xlink:href="#aD"/><use transform="matrix(0.06172839506172839,0,0,0.06172839506172839,76.41975308641976,0)" xlink:href="#aG"/></g><path fill="#3a414a" d="M160-131c35 5 61 23 61 61C221 17 115-2 30 0v-248c76 3 177-17 177 60 0 33-19 50-47 57zm-97-11c50-1 110 9 110-42 0-47-63-36-110-37v79zm0 115c55-2 124 14 124-45 0-56-70-42-124-44v89" id="aH"/><path fill="#3a414a" d="M141-36C126-15 110 5 73 4 37 3 15-17 15-53c-1-64 63-63 125-63 3-35-9-54-41-54-24 1-41 7-42 31l-33-3c5-37 33-52 76-52 45 0 72 20 72 64v82c-1 20 7 32 28 27v20c-31 9-61-2-59-35zM48-53c0 20 12 33 32 33 41-3 63-29 60-74-43 2-92-5-92 41" id="aI"/><path fill="#3a414a" d="M96-169c-40 0-48 33-48 73s9 75 48 75c24 0 41-14 43-38l32 2c-6 37-31 61-74 61-59 0-76-41-82-99-10-93 101-131 147-64 4 7 5 14 7 22l-32 3c-4-21-16-35-41-35" id="aJ"/><path fill="#3a414a" d="M143 0L79-87 56-68V0H24v-261h32v163l83-92h37l-77 82L181 0h-38" id="aK"/><g id="m"><use transform="matrix(0.06172839506172839,0,0,0.06172839506172839,0,0)" xlink:href="#aH"/><use transform="matrix(0.06172839506172839,0,0,0.06172839506172839,14.814814814814813,0)" xlink:href="#aI"/><use transform="matrix(0.06172839506172839,0,0,0.06172839506172839,27.160493827160494,0)" xlink:href="#aJ"/><use transform="matrix(0.06172839506172839,0,0,0.06172839506172839,38.27160493827161,0)" xlink:href="#aK"/><use transform="matrix(0.06172839506172839,0,0,0.06172839506172839,49.38271604938272,0)" xlink:href="#aF"/><use transform="matrix(0.06172839506172839,0,0,0.06172839506172839,61.7283950617284,0)" xlink:href="#aD"/><use transform="matrix(0.06172839506172839,0,0,0.06172839506172839,74.07407407407408,0)" xlink:href="#aG"/></g><path d="M30 0v-248h33v221h125V0H30" id="aL"/><path d="M100-194c62-1 85 37 85 99 1 63-27 99-86 99S16-35 15-95c0-66 28-99 85-99zM99-20c44 1 53-31 53-75 0-43-8-75-51-75s-53 32-53 75 10 74 51 75" id="aM"/><path d="M141-36C126-15 110 5 73 4 37 3 15-17 15-53c-1-64 63-63 125-63 3-35-9-54-41-54-24 1-41 7-42 31l-33-3c5-37 33-52 76-52 45 0 72 20 72 64v82c-1 20 7 32 28 27v20c-31 9-61-2-59-35zM48-53c0 20 12 33 32 33 41-3 63-29 60-74-43 2-92-5-92 41" id="aN"/><path d="M85-194c31 0 48 13 60 33l-1-100h32l1 261h-30c-2-10 0-23-3-31C134-8 116 4 85 4 32 4 16-35 15-94c0-66 23-100 70-100zm9 24c-40 0-46 34-46 75 0 40 6 74 45 74 42 0 51-32 51-76 0-42-9-74-50-73" id="aO"/><g id="n"><use transform="matrix(0.05,0,0,0.05,0,0)" xlink:href="#aL"/><use transform="matrix(0.05,0,0,0.05,10,0)" xlink:href="#aM"/><use transform="matrix(0.05,0,0,0.05,20,0)" xlink:href="#aN"/><use transform="matrix(0.05,0,0,0.05,30,0)" xlink:href="#aO"/></g><path d="M160-131c35 5 61 23 61 61C221 17 115-2 30 0v-248c76 3 177-17 177 60 0 33-19 50-47 57zm-97-11c50-1 110 9 110-42 0-47-63-36-110-37v79zm0 115c55-2 124 14 124-45 0-56-70-42-124-44v89" id="aP"/><path d="M24 0v-261h32V0H24" id="aQ"/><path d="M117-194c89-4 53 116 60 194h-32v-121c0-31-8-49-39-48C34-167 62-67 57 0H25l-1-190h30c1 10-1 24 2 32 11-22 29-35 61-36" id="aR"/><path d="M96-169c-40 0-48 33-48 73s9 75 48 75c24 0 41-14 43-38l32 2c-6 37-31 61-74 61-59 0-76-41-82-99-10-93 101-131 147-64 4 7 5 14 7 22l-32 3c-4-21-16-35-41-35" id="aS"/><path d="M100-194c63 0 86 42 84 106H49c0 40 14 67 53 68 26 1 43-12 49-29l28 8c-11 28-37 45-77 45C44 4 14-33 15-96c1-61 26-98 85-98zm52 81c6-60-76-77-97-28-3 7-6 17-6 28h103" id="aT"/><path d="M114-163C36-179 61-72 57 0H25l-1-190h30c1 12-1 29 2 39 6-27 23-49 58-41v29" id="aU"/><g id="o"><use transform="matrix(0.05,0,0,0.05,0,0)" xlink:href="#aP"/><use transform="matrix(0.05,0,0,0.05,12,0)" xlink:href="#aN"/><use transform="matrix(0.05,0,0,0.05,22,0)" xlink:href="#aQ"/><use transform="matrix(0.05,0,0,0.05,25.950000000000003,0)" xlink:href="#aN"/><use transform="matrix(0.05,0,0,0.05,35.95,0)" xlink:href="#aR"/><use transform="matrix(0.05,0,0,0.05,45.95,0)" xlink:href="#aS"/><use transform="matrix(0.05,0,0,0.05,54.95,0)" xlink:href="#aT"/><use transform="matrix(0.05,0,0,0.05,64.95,0)" xlink:href="#aU"/></g><linearGradient gradientUnits="userSpaceOnUse" id="p" x1="300" y1="860" x2="420" y2="740"><stop offset="0%" stop-color="#bd0816"/><stop offset="100%" stop-color="#ff5252"/></linearGradient><path d="M205 0l-28-72H64L36 0H1l101-248h38L239 0h-34zm-38-99l-47-123c-12 45-31 82-46 123h93" id="aV"/><path d="M84 4C-5 8 30-112 23-190h32v120c0 31 7 50 39 49 72-2 45-101 50-169h31l1 190h-30c-1-10 1-25-2-33-11 22-28 36-60 37" id="aW"/><path d="M59-47c-2 24 18 29 38 22v24C64 9 27 4 27-40v-127H5v-23h24l9-43h21v43h35v23H59v120" id="aX"/><path d="M106-169C34-169 62-67 57 0H25v-261h32l-1 103c12-21 28-36 61-36 89 0 53 116 60 194h-32v-121c2-32-8-49-39-48" id="aY"/><path d="M24-231v-30h32v30H24zM24 0v-190h32V0H24" id="aZ"/><g id="q"><use transform="matrix(0.05,0,0,0.05,0,0)" xlink:href="#aV"/><use transform="matrix(0.05,0,0,0.05,12,0)" xlink:href="#aW"/><use transform="matrix(0.05,0,0,0.05,22,0)" xlink:href="#aX"/><use transform="matrix(0.05,0,0,0.05,27,0)" xlink:href="#aY"/><use transform="matrix(0.05,0,0,0.05,37,0)" xlink:href="#aT"/><use transform="matrix(0.05,0,0,0.05,47,0)" xlink:href="#aR"/><use transform="matrix(0.05,0,0,0.05,57,0)" xlink:href="#aX"/><use transform="matrix(0.05,0,0,0.05,62,0)" xlink:href="#aZ"/><use transform="matrix(0.05,0,0,0.05,65.95,0)" xlink:href="#aS"/><use transform="matrix(0.05,0,0,0.05,74.95,0)" xlink:href="#aN"/><use transform="matrix(0.05,0,0,0.05,84.95,0)" xlink:href="#aX"/><use transform="matrix(0.05,0,0,0.05,89.95,0)" xlink:href="#aM"/><use transform="matrix(0.05,0,0,0.05,99.95,0)" xlink:href="#aU"/></g><linearGradient gradientUnits="userSpaceOnUse" id="r" x1="300" y1="640" x2="420" y2="520"><stop offset="0%" stop-color="#4d27a8"/><stop offset="100%" stop-color="#a166ff"/></linearGradient><path d="M30-248c118-7 216 8 213 122C240-48 200 0 122 0H30v-248zM63-27c89 8 146-16 146-99s-60-101-146-95v194" id="ba"/><path d="M190 0L58-211 59 0H30v-248h39L202-35l-2-213h31V0h-41" id="bb"/><path d="M185-189c-5-48-123-54-124 2 14 75 158 14 163 119 3 78-121 87-175 55-17-10-28-26-33-46l33-7c5 56 141 63 141-1 0-78-155-14-162-118-5-82 145-84 179-34 5 7 8 16 11 25" id="bc"/><g id="s"><use transform="matrix(0.05,0,0,0.05,0,0)" xlink:href="#ba"/><use transform="matrix(0.05,0,0,0.05,12.950000000000001,0)" xlink:href="#bb"/><use transform="matrix(0.05,0,0,0.05,25.900000000000002,0)" xlink:href="#bc"/></g><linearGradient gradientUnits="userSpaceOnUse" id="t" x1="1780" y1="300" x2="1900" y2="180"><stop offset="0%" stop-color="#b0084d"/><stop offset="100%" stop-color="#ff4f8b"/></linearGradient><path d="M266 0h-40l-56-210L115 0H75L2-248h35L96-30l15-64 43-154h32l59 218 59-218h35" id="bd"/><g id="u"><use transform="matrix(0.05,0,0,0.05,0,0)" xlink:href="#aV"/><use transform="matrix(0.05,0,0,0.05,11.35,0)" xlink:href="#bd"/><use transform="matrix(0.05,0,0,0.05,28.299999999999997,0)" xlink:href="#bc"/></g><path d="M115-194c55 1 70 41 70 98S169 2 115 4C84 4 66-9 55-30l1 105H24l-1-265h31l2 30c10-21 28-34 59-34zm-8 174c40 0 45-34 45-75s-6-73-45-74c-42 0-51 32-51 76 0 43 10 73 51 73" id="be"/><path d="M179-190L93 31C79 59 56 82 12 73V49c39 6 53-20 64-50L1-190h34L92-34l54-156h33" id="bf"/><g id="v"><use transform="matrix(0.05,0,0,0.05,0,0)" xlink:href="#aV"/><use transform="matrix(0.05,0,0,0.05,12,0)" xlink:href="#be"/><use transform="matrix(0.05,0,0,0.05,22,0)" xlink:href="#be"/><use transform="matrix(0.05,0,0,0.05,32,0)" xlink:href="#bc"/><use transform="matrix(0.05,0,0,0.05,44,0)" xlink:href="#bf"/><use transform="matrix(0.05,0,0,0.05,53,0)" xlink:href="#aR"/><use transform="matrix(0.05,0,0,0.05,63,0)" xlink:href="#aS"/></g><path fill="#3a414a" d="M205 0l-28-72H64L36 0H1l101-248h38L239 0h-34zm-38-99l-47-123c-12 45-31 82-46 123h93" id="bg"/><path fill="#3a414a" d="M210-169c-67 3-38 105-44 169h-31v-121c0-29-5-50-35-48C34-165 62-65 56 0H25l-1-190h30c1 10-1 24 2 32 10-44 99-50 107 0 11-21 27-35 58-36 85-2 47 119 55 194h-31v-121c0-29-5-49-35-48" id="bh"/><path fill="#3a414a" d="M9 0v-24l116-142H16v-24h144v24L44-24h123V0H9" id="bi"/><g id="w"><use transform="matrix(0.06172839506172839,0,0,0.06172839506172839,0,0)" xlink:href="#bg"/><use transform="matrix(0.06172839506172839,0,0,0.06172839506172839,14.814814814814813,0)" xlink:href="#bh"/><use transform="matrix(0.06172839506172839,0,0,0.06172839506172839,33.2716049382716,0)" xlink:href="#aI"/><use transform="matrix(0.06172839506172839,0,0,0.06172839506172839,45.61728395061728,0)" xlink:href="#bi"/><use transform="matrix(0.06172839506172839,0,0,0.06172839506172839,56.72839506172839,0)" xlink:href="#aC"/><use transform="matrix(0.06172839506172839,0,0,0.06172839506172839,69.07407407407408,0)" xlink:href="#aD"/></g><path fill="#3a414a" d="M30-248c118-7 216 8 213 122C240-48 200 0 122 0H30v-248zM63-27c89 8 146-16 146-99s-60-101-146-95v194" id="bj"/><path fill="#3a414a" d="M179-190L93 31C79 59 56 82 12 73V49c39 6 53-20 64-50L1-190h34L92-34l54-156h33" id="bk"/><g id="x"><use transform="matrix(0.06172839506172839,0,0,0.06172839506172839,0,0)" xlink:href="#bj"/><use transform="matrix(0.06172839506172839,0,0,0.06172839506172839,15.987654320987653,0)" xlink:href="#bk"/><use transform="matrix(0.06172839506172839,0,0,0.06172839506172839,27.098765432098766,0)" xlink:href="#aD"/><use transform="matrix(0.06172839506172839,0,0,0.06172839506172839,39.44444444444444,0)" xlink:href="#aI"/><use transform="matrix(0.06172839506172839,0,0,0.06172839506172839,51.79012345679012,0)" xlink:href="#bh"/><use transform="matrix(0.06172839506172839,0,0,0.06172839506172839,70.24691358024691,0)" xlink:href="#aC"/><use transform="matrix(0.06172839506172839,0,0,0.06172839506172839,82.5925925925926,0)" xlink:href="#bj"/><use transform="matrix(0.06172839506172839,0,0,0.06172839506172839,98.58024691358025,0)" xlink:href="#aH"/></g><path fill="#3a414a" d="M185-189c-5-48-123-54-124 2 14 75 158 14 163 119 3 78-121 87-175 55-17-10-28-26-33-46l33-7c5 56 141 63 141-1 0-78-155-14-162-118-5-82 145-84 179-34 5 7 8 16 11 25" id="bl"/><path fill="#3a414a" d="M108 0H70L1-190h34L89-25l56-165h34" id="bm"/><path fill="#3a414a" d="M24 0v-261h32V0H24" id="bn"/><path fill="#3a414a" d="M135-143c-3-34-86-38-87 0 15 53 115 12 119 90S17 21 10-45l28-5c4 36 97 45 98 0-10-56-113-15-118-90-4-57 82-63 122-42 12 7 21 19 24 35" id="bo"/><g id="y"><use transform="matrix(0.06172839506172839,0,0,0.06172839506172839,0,0)" xlink:href="#bl"/><use transform="matrix(0.06172839506172839,0,0,0.06172839506172839,14.814814814814813,0)" xlink:href="#aF"/><use transform="matrix(0.06172839506172839,0,0,0.06172839506172839,27.160493827160494,0)" xlink:href="#aB"/><use transform="matrix(0.06172839506172839,0,0,0.06172839506172839,34.50617283950617,0)" xlink:href="#bm"/><use transform="matrix(0.06172839506172839,0,0,0.06172839506172839,45.61728395061728,0)" xlink:href="#aF"/><use transform="matrix(0.06172839506172839,0,0,0.06172839506172839,57.962962962962955,0)" xlink:href="#aB"/><use transform="matrix(0.06172839506172839,0,0,0.06172839506172839,65.30864197530863,0)" xlink:href="#bn"/><use transform="matrix(0.06172839506172839,0,0,0.06172839506172839,70.18518518518518,0)" xlink:href="#aF"/><use transform="matrix(0.06172839506172839,0,0,0.06172839506172839,82.53086419753086,0)" xlink:href="#bo"/><use transform="matrix(0.06172839506172839,0,0,0.06172839506172839,93.64197530864197,0)" xlink:href="#bo"/></g><path fill="#3a414a" d="M212-179c-10-28-35-45-73-45-59 0-87 40-87 99 0 60 29 101 89 101 43 0 62-24 78-52l27 14C228-24 195 4 139 4 59 4 22-46 18-125c-6-104 99-153 187-111 19 9 31 26 39 46" id="bp"/><path fill="#3a414a" d="M106-169C34-169 62-67 57 0H25v-261h32l-1 103c12-21 28-36 61-36 89 0 53 116 60 194h-32v-121c2-32-8-49-39-48" id="bq"/><g id="z"><use transform="matrix(0.06172839506172839,0,0,0.06172839506172839,0,0)" xlink:href="#bp"/><use transform="matrix(0.06172839506172839,0,0,0.06172839506172839,15.987654320987653,0)" xlink:href="#aI"/><use transform="matrix(0.06172839506172839,0,0,0.06172839506172839,28.333333333333332,0)" xlink:href="#aJ"/><use transform="matrix(0.06172839506172839,0,0,0.06172839506172839,39.44444444444444,0)" xlink:href="#bq"/><use transform="matrix(0.06172839506172839,0,0,0.06172839506172839,51.79012345679012,0)" xlink:href="#aF"/></g><path fill="#3a414a" d="M24-231v-30h32v30H24zM24 0v-190h32V0H24" id="br"/><g id="A"><use transform="matrix(0.06172839506172839,0,0,0.06172839506172839,0,0)" xlink:href="#bp"/><use transform="matrix(0.06172839506172839,0,0,0.06172839506172839,15.987654320987653,0)" xlink:href="#bn"/><use transform="matrix(0.06172839506172839,0,0,0.06172839506172839,20.864197530864196,0)" xlink:href="#br"/><use transform="matrix(0.06172839506172839,0,0,0.06172839506172839,25.74074074074074,0)" xlink:href="#aF"/><use transform="matrix(0.06172839506172839,0,0,0.06172839506172839,38.08641975308642,0)" xlink:href="#aD"/><use transform="matrix(0.06172839506172839,0,0,0.06172839506172839,50.432098765432094,0)" xlink:href="#aE"/></g><path fill="#333" d="M133-34C117-15 103 5 69 4 32 3 11-16 11-54c-1-60 55-63 116-61 1-26-3-47-28-47-18 1-26 9-28 27l-52-2c7-38 36-58 82-57s74 22 75 68l1 82c-1 14 12 18 25 15v27c-30 8-71 5-69-32zm-48 3c29 0 43-24 42-57-32 0-66-3-65 30 0 17 8 27 23 27" id="bs"/><path fill="#333" d="M135-194c53 0 70 44 70 98 0 56-19 98-73 100-31 1-45-17-59-34 3 33 2 69 2 105H25l-1-265h48c2 10 0 23 3 31 11-24 29-35 60-35zM114-30c33 0 39-31 40-66 0-38-9-64-40-64-56 0-55 130 0 130" id="bt"/><path fill="#333" d="M24 0v-54h51V0H24" id="bu"/><g id="B"><use transform="matrix(0.04938271604938272,0,0,0.04938271604938272,0,0)" xlink:href="#bs"/><use transform="matrix(0.04938271604938272,0,0,0.04938271604938272,9.876543209876544,0)" xlink:href="#bt"/><use transform="matrix(0.04938271604938272,0,0,0.04938271604938272,20.69135802469136,0)" xlink:href="#bt"/><use transform="matrix(0.04938271604938272,0,0,0.04938271604938272,31.506172839506174,0)" xlink:href="#bu"/></g><path fill="#333" d="M25-224v-37h50v37H25zM25 0v-190h50V0H25" id="bv"/><g id="C"><use transform="matrix(0.04938271604938272,0,0,0.04938271604938272,0,0)" xlink:href="#bs"/><use transform="matrix(0.04938271604938272,0,0,0.04938271604938272,9.876543209876544,0)" xlink:href="#bt"/><use transform="matrix(0.04938271604938272,0,0,0.04938271604938272,20.69135802469136,0)" xlink:href="#bv"/><use transform="matrix(0.04938271604938272,0,0,0.04938271604938272,25.629629629629633,0)" xlink:href="#bu"/></g><g id="D"><use transform="matrix(0.06172839506172839,0,0,0.06172839506172839,0,0)" xlink:href="#bg"/><use transform="matrix(0.06172839506172839,0,0,0.06172839506172839,14.814814814814813,0)" xlink:href="#bh"/><use transform="matrix(0.06172839506172839,0,0,0.06172839506172839,33.2716049382716,0)" xlink:href="#aI"/><use transform="matrix(0.06172839506172839,0,0,0.06172839506172839,45.61728395061728,0)" xlink:href="#bi"/><use transform="matrix(0.06172839506172839,0,0,0.06172839506172839,56.72839506172839,0)" xlink:href="#aC"/><use transform="matrix(0.06172839506172839,0,0,0.06172839506172839,69.07407407407408,0)" xlink:href="#aD"/></g><path fill="#3a414a" d="M233-177c-1 41-23 64-60 70L243 0h-38l-65-103H63V0H30v-248c88 3 205-21 203 71zM63-129c60-2 137 13 137-47 0-61-80-42-137-45v92" id="bw"/><g id="E"><use transform="matrix(0.06172839506172839,0,0,0.06172839506172839,0,0)" xlink:href="#bw"/><use transform="matrix(0.06172839506172839,0,0,0.06172839506172839,15.987654320987653,0)" xlink:href="#bj"/><use transform="matrix(0.06172839506172839,0,0,0.06172839506172839,31.975308641975307,0)" xlink:href="#bl"/></g><path fill="#333" d="M135-150c-39-12-60 13-60 57V0H25l-1-190h47c2 13-1 29 3 40 6-28 27-53 61-41v41" id="bx"/><path fill="#333" d="M220-157c-53 9-28 100-34 157h-49v-107c1-27-5-49-29-50C55-147 81-57 75 0H25l-1-190h47c2 12-1 28 3 38 10-53 101-56 108 0 13-22 24-43 59-42 82 1 51 116 57 194h-49v-107c-1-25-5-48-29-50" id="by"/><path fill="#333" d="M123 10C108 53 80 86 19 72V37c35 8 53-11 59-39L3-190h52l48 148c12-52 28-100 44-148h51" id="bz"/><g id="F"><use transform="matrix(0.04938271604938272,0,0,0.04938271604938272,0,0)" xlink:href="#bt"/><use transform="matrix(0.04938271604938272,0,0,0.04938271604938272,10.814814814814815,0)" xlink:href="#bx"/><use transform="matrix(0.04938271604938272,0,0,0.04938271604938272,17.728395061728396,0)" xlink:href="#bv"/><use transform="matrix(0.04938271604938272,0,0,0.04938271604938272,22.666666666666668,0)" xlink:href="#by"/><use transform="matrix(0.04938271604938272,0,0,0.04938271604938272,38.46913580246914,0)" xlink:href="#bs"/><use transform="matrix(0.04938271604938272,0,0,0.04938271604938272,48.345679012345684,0)" xlink:href="#bx"/><use transform="matrix(0.04938271604938272,0,0,0.04938271604938272,55.25925925925927,0)" xlink:href="#bz"/></g><path fill="#333" d="M84 4C32 4 15-41 15-95c0-55 18-99 73-99 29 0 47 12 58 34l2-30h48l-1 265h-49V-32C136-9 114 4 84 4zm21-34c32 0 41-29 41-66 0-36-9-64-40-64-33 0-39 30-40 65 0 43 13 65 39 65" id="bA"/><path fill="#333" d="M85 4C-2 5 27-109 22-190h50c7 57-23 150 33 157 60-5 35-97 40-157h50l1 190h-47c-2-12 1-28-3-38-12 25-28 42-61 42" id="bB"/><path fill="#333" d="M185-48c-13 30-37 53-82 52C43 2 14-33 14-96s30-98 90-98c62 0 83 45 84 108H66c0 31 8 55 39 56 18 0 30-7 34-22zm-45-69c5-46-57-63-70-21-2 6-4 13-4 21h74" id="bC"/><path fill="#333" d="M137-138c1-29-70-34-71-4 15 46 118 7 119 86 1 83-164 76-172 9l43-7c4 19 20 25 44 25 33 8 57-30 24-41C81-84 22-81 20-136c-2-80 154-74 161-7" id="bD"/><g id="G"><use transform="matrix(0.04938271604938272,0,0,0.04938271604938272,0,0)" xlink:href="#bA"/><use transform="matrix(0.04938271604938272,0,0,0.04938271604938272,10.814814814814815,0)" xlink:href="#bB"/><use transform="matrix(0.04938271604938272,0,0,0.04938271604938272,21.62962962962963,0)" xlink:href="#bC"/><use transform="matrix(0.04938271604938272,0,0,0.04938271604938272,31.506172839506174,0)" xlink:href="#bx"/><use transform="matrix(0.04938271604938272,0,0,0.04938271604938272,38.41975308641975,0)" xlink:href="#bx"/><use transform="matrix(0.04938271604938272,0,0,0.04938271604938272,45.333333333333336,0)" xlink:href="#bv"/><use transform="matrix(0.04938271604938272,0,0,0.04938271604938272,50.27160493827161,0)" xlink:href="#bC"/><use transform="matrix(0.04938271604938272,0,0,0.04938271604938272,60.14814814814815,0)" xlink:href="#bD"/></g><path fill="#333" d="M88-194c31-1 46 15 58 34l-1-101h50l1 261h-48c-2-10 0-23-3-31C134-8 116 4 84 4 32 4 16-41 15-95c0-56 19-97 73-99zm17 164c33 0 40-30 41-66 1-37-9-64-41-64s-38 30-39 65c0 43 13 65 39 65" id="bE"/><path fill="#333" d="M190-63c-7 42-38 67-86 67-59 0-84-38-90-98-12-110 154-137 174-36l-49 2c-2-19-15-32-35-32-30 0-35 28-38 64-6 74 65 87 74 30" id="bF"/><path fill="#333" d="M115-3C79 11 28 4 28-45v-112H4v-33h27l15-45h31v45h36v33H77v99c-1 23 16 31 38 25v30" id="bG"/><g id="H"><use transform="matrix(0.04938271604938272,0,0,0.04938271604938272,0,0)" xlink:href="#bE"/><use transform="matrix(0.04938271604938272,0,0,0.04938271604938272,10.814814814814815,0)" xlink:href="#bv"/><use transform="matrix(0.04938271604938272,0,0,0.04938271604938272,15.753086419753087,0)" xlink:href="#bx"/><use transform="matrix(0.04938271604938272,0,0,0.04938271604938272,22.666666666666668,0)" xlink:href="#bC"/><use transform="matrix(0.04938271604938272,0,0,0.04938271604938272,32.543209876543216,0)" xlink:href="#bF"/><use transform="matrix(0.04938271604938272,0,0,0.04938271604938272,42.41975308641976,0)" xlink:href="#bG"/></g><path fill="#333" d="M195-6C206 82 75 100 31 46c-4-6-6-13-8-21l49-6c3 16 16 24 34 25 40 0 42-37 40-79-11 22-30 35-61 35-53 0-70-43-70-97 0-56 18-96 73-97 30 0 46 14 59 34l2-30h47zm-90-29c32 0 41-27 41-63 0-35-9-62-40-62-32 0-39 29-40 63 0 36 9 62 39 62" id="bH"/><path fill="#333" d="M135-194c87-1 58 113 63 194h-50c-7-57 23-157-34-157-59 0-34 97-39 157H25l-1-190h47c2 12-1 28 3 38 12-26 28-41 61-42" id="bI"/><g id="I"><use transform="matrix(0.04938271604938272,0,0,0.04938271604938272,0,0)" xlink:href="#by"/><use transform="matrix(0.04938271604938272,0,0,0.04938271604938272,15.80246913580247,0)" xlink:href="#bC"/><use transform="matrix(0.04938271604938272,0,0,0.04938271604938272,25.679012345679016,0)" xlink:href="#bD"/><use transform="matrix(0.04938271604938272,0,0,0.04938271604938272,35.55555555555556,0)" xlink:href="#bD"/><use transform="matrix(0.04938271604938272,0,0,0.04938271604938272,45.4320987654321,0)" xlink:href="#bs"/><use transform="matrix(0.04938271604938272,0,0,0.04938271604938272,55.308641975308646,0)" xlink:href="#bH"/><use transform="matrix(0.04938271604938272,0,0,0.04938271604938272,66.12345679012346,0)" xlink:href="#bv"/><use transform="matrix(0.04938271604938272,0,0,0.04938271604938272,71.06172839506172,0)" xlink:href="#bI"/></g><g id="J"><use transform="matrix(0.04938271604938272,0,0,0.04938271604938272,0,0)" xlink:href="#bA"/><use transform="matrix(0.04938271604938272,0,0,0.04938271604938272,10.814814814814815,0)" xlink:href="#bB"/><use transform="matrix(0.04938271604938272,0,0,0.04938271604938272,21.62962962962963,0)" xlink:href="#bC"/><use transform="matrix(0.04938271604938272,0,0,0.04938271604938272,31.506172839506174,0)" xlink:href="#bx"/><use transform="matrix(0.04938271604938272,0,0,0.04938271604938272,38.41975308641975,0)" xlink:href="#bv"/><use transform="matrix(0.04938271604938272,0,0,0.04938271604938272,43.358024691358025,0)" xlink:href="#bC"/><use transform="matrix(0.04938271604938272,0,0,0.04938271604938272,53.23456790123457,0)" xlink:href="#bD"/></g></defs></g></svg>